<svg xmlns="http://www.w3.org/2000/svg" viewBox="0 0 500 500"><g id="freepik--Floor--inject-111"><polygon points="42.68 348.71 94.51 348.47 146.34 348.38 250 348.21 353.66 348.38 405.49 348.47 457.32 348.71 405.49 348.96 353.66 349.04 250 349.21 146.34 349.04 94.51 348.95 42.68 348.71" style="fill:#263238"></polygon></g><g id="freepik--Shadow--inject-111"><ellipse cx="250" cy="422.38" rx="192.98" ry="25.37" style="fill:#ebebeb"></ellipse></g><g id="freepik--Plant--inject-111"><path d="M419.67,201s-20.69-2.9-15.85-27.88C403.82,173.16,426.93,178.35,419.67,201Z" style="fill:#FFFFFF"></path><path d="M419.67,201s-20.69-2.9-15.85-27.88C403.82,173.16,426.93,178.35,419.67,201Z" style="opacity:0.1"></path><path d="M418.62,195.82a38.89,38.89,0,0,0-1.41-3.72c0-.16,0-.32,0-.47,0-.35-.06-.69-.08-1-.06-.75-.11-1.49-.15-2.24-.09-1.49-.19-3-.21-4.48a.07.07,0,0,0-.13,0c0,1.5,0,3,0,4.49,0,.74.07,1.49.12,2.24l0,.49a43,43,0,0,0-4.15-7.09,34.76,34.76,0,0,0-2.26-2.87c-.82-.94-1.69-1.84-2.53-2.78-.05-.06-.14,0-.09.09a36.84,36.84,0,0,1,4,5.31c.63,1,1.22,1.92,1.79,2.92l-.19-.08-.74-.3-1.69-.64-3.33-1.23c-.06,0-.11.09,0,.11,1.1.44,2.19.9,3.27,1.37l1.6.69.81.34a2.76,2.76,0,0,0,.55.19c.42.75.83,1.5,1.21,2.27a53.8,53.8,0,0,1,2.53,6l.15.43A11.54,11.54,0,0,0,416,195l-2.14-1c-1.45-.66-2.89-1.34-4.28-2.12-.07,0-.13.07-.06.11,1.42.77,2.81,1.6,4.24,2.37.71.39,1.43.76,2.15,1.12a7,7,0,0,0,1.95.78,24.1,24.1,0,0,1,1.35,5.86c.23,2.83.21,5.68.27,8.51a0,0,0,0,0,.08,0c.21-2.56.32-5.16.33-7.73A22.11,22.11,0,0,0,418.62,195.82Z" style="fill:#263238"></path><path d="M415.44,181.14a24.91,24.91,0,0,0-.21,4.4,0,0,0,0,0,.06,0c.09-1.46.1-2.92.27-4.37C415.57,181.09,415.45,181.06,415.44,181.14Z" style="fill:#263238"></path><path d="M409.52,182.39a16.42,16.42,0,0,1-2.66-1.31c-.07-.05-.13.07-.06.11a10.07,10.07,0,0,0,2.69,1.28C409.54,182.49,409.57,182.41,409.52,182.39Z" style="fill:#263238"></path><path d="M420.33,240.69c0-2.29-.06-4.57-.09-6.86,0-7.59-.1-15.18-.24-22.78q-.17-9-.42-18.08a.08.08,0,0,0-.05-.07l0-4.94s-.05-.06-.1-.06-.1,0-.1.06l0,4.95a.1.1,0,0,0,0,.07c-.31,10.73-.58,21.45-.64,32.18,0,2.19,0,4.37,0,6.55q-.12,10.48-.09,21c0,1.11,0,2.22,0,3.34,0,6.4.07,12.8.07,19.2,0,.34.38.51.79.53s1-.17,1-.56c0-7.06,0-14.12,0-21.17Q420.37,247.37,420.33,240.69Z" style="fill:#263238"></path><path d="M411.69,233.74s-9.95-7.37-19.4-2.39-10.92,24.19-10.92,24.19,13.87,2,22.6-6.33C412.39,241.2,411.69,233.74,411.69,233.74Z" style="fill:#FFFFFF"></path><path d="M414.4,234.2a11.76,11.76,0,0,0-5.76-.75,8.4,8.4,0,0,0-1.22-.12l-1.41-.11-2.9-.2c-2-.15-3.93-.27-5.89-.47-.07,0-.08.12,0,.13,1.94.25,3.87.52,5.81.72,1,.1,2,.2,3,.27l.72.07-.88.22a24.13,24.13,0,0,0-4.51,1.84c-.78.14-1.56.36-2.33.54-1.23.29-2.46.6-3.68.93-2.42.63-4.81,1.34-7.21,2-.08,0,0,.14,0,.12,2.4-.59,4.8-1.13,7.2-1.7,1.17-.28,2.34-.55,3.5-.84l.92-.21a29.16,29.16,0,0,0-7.07,6.15,38.49,38.49,0,0,0-4.92,7.75c0,.08.07.14.11.07a37.71,37.71,0,0,1,5.95-7.81c-.05.14-.09.27-.13.4l-.56,1.76c-.37,1.17-.74,2.34-1.09,3.52,0,.08.1.1.12,0,.42-1.14.82-2.28,1.22-3.42.2-.56.4-1.12.59-1.68l.3-.87.1-.27a33.61,33.61,0,0,1,3.53-3,27.07,27.07,0,0,1,5.28-3c0,.17-.07.35-.1.51-.1.46-.2.91-.29,1.36-.2,1-.38,1.89-.57,2.83-.37,1.93-.6,3.88-1,5.81a.06.06,0,0,0,.12,0c.44-1.94,1-3.85,1.45-5.79.22-1,.44-1.94.64-2.91l.27-1.37a6.36,6.36,0,0,0,.14-.76l.54-.22a15.73,15.73,0,0,1,8.28-1.14,8.14,8.14,0,0,1,6,4.8c.09.22.44.09.39-.14A7.71,7.71,0,0,0,414.4,234.2Z" style="fill:#263238"></path><path d="M399.17,242.4l-.84,3.78a27.43,27.43,0,0,0-.7,3.68,0,0,0,0,0,.08,0,27.33,27.33,0,0,0,.85-3.71c.24-1.24.49-2.48.73-3.73C399.3,242.35,399.18,242.32,399.17,242.4Z" style="fill:#263238"></path><path d="M389.54,245.6a41.14,41.14,0,0,1-3.82,1.9c-.08,0,0,.16,0,.12a40.14,40.14,0,0,0,3.8-2S389.57,245.59,389.54,245.6Z" style="fill:#263238"></path><path d="M413.93,220.2s-12.17.78-17.82-7.24-4.39-19.48-4.39-19.48,12.77,1.56,17.85,7.32S413.93,220.2,413.93,220.2Z" style="fill:#FFFFFF"></path><path d="M419.63,232.2c-.42-1.3-.94-2.58-1.43-3.86s-1-2.44-1.51-3.64a75.42,75.42,0,0,0-3.65-7.17c-.86-1.48-1.78-2.91-2.72-4.33,0-.21-.07-.43-.1-.65-.06-.37-.11-.75-.17-1.12-.12-.77-.25-1.54-.38-2.31-.28-1.68-.63-3.35-.9-5,0-.08-.13-.08-.12,0,.24,1.66.41,3.33.64,5,.12.82.22,1.64.35,2.45,0,.29.09.59.14.88a88.53,88.53,0,0,0-6-7.8c-.29-.34-.59-.66-.89-1a2.33,2.33,0,0,0-.11-.28l-.27-.7-.52-1.45c-.34-.95-.65-1.91-.91-2.89,0-.08-.14,0-.12,0,.25,1,.51,2,.8,3,.14.47.29.94.46,1.41l.09.23c-1.56-1.69-3.18-3.32-4.82-4.94-.05-.06-.14,0-.08.09A87.29,87.29,0,0,1,406,208.67a7.93,7.93,0,0,0-.9-.23c-.94-.18-1.89-.31-2.83-.43-2-.25-4-.51-5.93-.82-.08,0-.11.11,0,.13,1.88.37,3.75.79,5.62,1.22.88.2,1.77.38,2.66.55a19.4,19.4,0,0,1,2.14.61l.59.84c.89,1.3,1.75,2.63,2.59,4l-1.24-.24c-.94-.18-1.89-.35-2.83-.51-1.86-.3-3.71-.62-5.55-1-.07,0-.11.1,0,.12,1.86.44,3.71.95,5.55,1.44.89.24,1.79.45,2.69.65l1.35.29a3.06,3.06,0,0,0,.55.1q2.67,4.32,5,8.84c.68,1.32,1.33,2.66,2,4s1.21,2.79,1.81,4.2C419.29,232.62,419.73,232.51,419.63,232.2Z" style="fill:#263238"></path><path d="M407.19,204.25c-.24-1.16-.48-2.32-.74-3.47,0-.08-.13,0-.12,0,.23,1.14.45,2.29.66,3.43a32.68,32.68,0,0,0,.69,3.41s0,0,0,0A26.23,26.23,0,0,0,407.19,204.25Z" style="fill:#263238"></path><path d="M400.09,203.91a17.92,17.92,0,0,0-1.75-.73l-.92-.36-.47-.19a2.15,2.15,0,0,1-.51-.23c-.09-.07-.15.09-.06.11a2.57,2.57,0,0,1,.52.21l.46.21.89.39A16.25,16.25,0,0,0,400,204C400.11,204.06,400.16,204,400.09,203.91Z" style="fill:#263238"></path><path d="M426.38,210.64s7.36-13.75,18.56-15.88S463,204.15,463,204.15s-8.17,10.43-18.45,12.26S426.38,210.64,426.38,210.64Z" style="fill:#FFFFFF"></path><path d="M452.44,200.92a30.05,30.05,0,0,0-8.78.11c.17-.1.33-.19.5-.27l2.48-1.28c1.72-.89,3.46-1.85,5.26-2.57a.06.06,0,1,0,0-.11c-1.75.81-3.57,1.5-5.33,2.3-.88.41-1.74.83-2.59,1.28-.56.3-1.17.57-1.71.92a31.19,31.19,0,0,0-7.12,2.37l1.4-1.53c1-1.14,2.07-2.34,3.22-3.38.06,0,0-.14-.09-.09-1.18,1.07-2.41,2.05-3.55,3.16-.55.54-1.08,1.09-1.59,1.67-.26.28-.52.58-.76.88a29.44,29.44,0,0,0-15,20.27.06.06,0,0,0,.12,0,33.83,33.83,0,0,1,8.23-13.93,32.42,32.42,0,0,1,15-8.68,33.13,33.13,0,0,1,10.36-.94C452.57,201.15,452.58,200.94,452.44,200.92Z" style="fill:#263238"></path><path d="M463,204.15s-8.17,10.44-18.45,12.26c-7.84,1.39-14.29-2.7-16.9-4.72l-.57-.92s5.3-4.47,15.33-7.05S463,204.15,463,204.15Z" style="opacity:0.1"></path><path d="M445.94,196a29.71,29.71,0,0,0-2.49,1.64,16.21,16.21,0,0,0-2.16,2c-.06.06,0,.14.1.09.74-.65,1.49-1.29,2.26-1.9a24.16,24.16,0,0,1,2.35-1.7C446.07,196.09,446,196,445.94,196Z" style="fill:#263238"></path><path d="M452.08,198.35l-1.25.49-1.25.52c-.09,0,0,.18.05.15l1.25-.51,1.24-.53C452.19,198.44,452.16,198.32,452.08,198.35Z" style="fill:#263238"></path><path d="M424.91,227.94s2,13.64,12.22,18.41,22.76,0,22.76,0S455,216.84,424.91,227.94Z" style="fill:#FFFFFF"></path><path d="M452.82,237.48c-.94-.11-1.88-.27-2.82-.44l-1.38-.26-.72-.14-.83-.77a41.76,41.76,0,0,0-6.27-4.55,35.06,35.06,0,0,0-3.76-1.93h.19l3.38.14c2.25.11,4.5.16,6.75.3.08,0,.08-.12,0-.12-2.26-.16-4.51-.4-6.76-.6l-3.28-.29-1.69-.15-.43,0c-.59-.22-1.18-.43-1.77-.61a16,16,0,0,0-8.69-.48c-2.58.66-5.16,2.35-5.83,5.07,0,.09.13.16.17.06,1-2.27,3.48-3.41,5.76-3.89a14,14,0,0,1,4.65-.09,11,11,0,0,0,.51,2.07c.29,1,.57,1.92.86,2.87.58,1.92,1.22,3.82,1.79,5.74,0,.07.14,0,.12,0-.48-1.91-.88-3.85-1.34-5.76-.23-1-.47-1.88-.7-2.83a14.59,14.59,0,0,0-.52-1.93,23.55,23.55,0,0,1,2.67.62,39.81,39.81,0,0,1,4.64,1.71c.15,1,.37,1.93.59,2.89.28,1.21.6,2.4,1,3.57a.06.06,0,1,0,.11,0c0-.07,0-.15,0-.22h0c-.23-1.11-.48-2.22-.72-3.34-.19-.9-.36-1.8-.55-2.7,1.27.58,2.52,1.2,3.73,1.9,0,.28.1.56.14.81.07.47.16.94.24,1.4.19,1.06.4,2.1.66,3.14a48.8,48.8,0,0,0,1.76,5.94.06.06,0,0,0,0,.08l.06.06c0,.05.12,0,.1-.06-.47-2-1-4-1.46-6.06-.22-1-.44-2-.65-3-.1-.51-.19-1-.29-1.52,0-.15-.05-.3-.07-.46a42.06,42.06,0,0,1,4,2.66,43.65,43.65,0,0,1,6.11,5.58c.07.09.22,0,.15-.12a36.56,36.56,0,0,0-2.45-3c-.51-.55-1.05-1.09-1.59-1.61l.17,0,1.44.22c.95.12,1.9.22,2.85.32C452.87,237.61,452.9,237.49,452.82,237.48Z" style="fill:#263238"></path><path d="M445.62,242.11h0l-.06-.36c0-.15-.11-.29-.13-.44h0c-.21-.91-.39-1.83-.55-2.75a.06.06,0,0,0-.12,0,11.47,11.47,0,0,0,.78,3.56s.08,0,.08,0Z" style="fill:#263238"></path><path d="M437,241.89a.06.06,0,0,0-.06-.06q-.44-1.82-.81-3.63c-.13-.64-.27-1.28-.39-1.92-.07-.35-.13-.69-.19-1a2.92,2.92,0,0,0-.22-.88.07.07,0,0,0-.12,0,6,6,0,0,0,.26,1.83c.13.67.25,1.33.4,2,.3,1.34.64,2.68,1,4a.07.07,0,0,0,.13,0C437.05,242.09,437,242,437,241.89Z" style="fill:#263238"></path><path d="M451.89,233.55c-1.87-.25-3.75-.52-5.62-.75-.08,0-.12.11,0,.12,1.87.28,3.74.51,5.62.76C451.94,233.69,452,233.56,451.89,233.55Z" style="fill:#263238"></path><path d="M419.65,196s-6.27-27.53,23.31-38.67C443,157.28,451.16,193.52,419.65,196Z" style="fill:#FFFFFF"></path><path d="M426,180.34l.32-.19,1.67-.94,3.43-1.92c2.26-1.26,4.49-2.57,6.76-3.81.07,0,0-.15-.07-.11-2.27,1.24-4.59,2.4-6.88,3.61l-3.39,1.79-1.39.74c1-1.88,2-3.71,3.2-5.48,1.55-2.36,3.24-4.6,5-6.8a.1.1,0,0,0-.14-.14,46.81,46.81,0,0,0-6.84,8.39,2.71,2.71,0,0,1,0-.29c0-.69,0-1.37.06-2.06,0-1.34,0-2.69,0-4,0-.08-.12-.08-.12,0-.06,1.33-.22,2.65-.29,4q-.06,1-.09,2c0,.35,0,.76,0,1.15-.61,1-1.19,2-1.75,3a53.29,53.29,0,0,0-2.64,5.55c0-.69-.07-1.37-.11-2.06-.09-1.51-.27-3-.34-4.52,0-.08-.13-.07-.12,0,0,1.51,0,3,0,4.52,0,.76.05,1.51.1,2.26,0,.28,0,.56.05.84a50,50,0,0,0-2.23,7.57,80.42,80.42,0,0,0-1.1,8.31s0,0,0,0a44.82,44.82,0,0,1,1.57-7.41c.36-1.3.75-2.59,1.17-3.88,1.23-.58,2.41-1.3,3.59-2l3.72-2c2.46-1.35,4.93-2.73,7.48-3.93.07,0,0-.14-.07-.1-2.58,1.16-5.18,2.28-7.71,3.55-1.26.63-2.5,1.31-3.73,2-1,.58-2.09,1.16-3.07,1.82.29-.85.59-1.71.92-2.55A73.79,73.79,0,0,1,426,180.34Z" style="fill:#263238"></path><path d="M423.54,174c0-.08-.13-.07-.12,0,.1,1.57.16,3.14.32,4.7,0,.09.15.09.14,0C423.83,177.18,423.66,175.61,423.54,174Z" style="fill:#263238"></path><path d="M437.73,179.3c-1.85.75-3.72,1.46-5.56,2.23-.06,0,0,.1,0,.08,1.87-.7,3.72-1.46,5.57-2.19C437.84,179.39,437.8,179.27,437.73,179.3Z" style="fill:#263238"></path><path d="M440.54,166.6a47.5,47.5,0,0,0-5.26,2.83c-.09,0,0,.18.08.13,1.72-1,3.47-2,5.25-2.85C440.68,166.67,440.61,166.57,440.54,166.6Z" style="fill:#263238"></path><rect x="397.43" y="255.5" width="42.66" height="44.97" style="fill:#37474f"></rect><rect x="394.49" y="271.41" width="2.18" height="77.03" style="fill:#263238"></rect><rect x="440.62" y="271.41" width="2.18" height="77.03" style="fill:#263238"></rect><rect x="418.72" y="271.41" width="2.18" height="77.03" style="fill:#263238"></rect><rect x="395.58" y="297.58" width="46.12" height="6.23" style="fill:#263238"></rect></g><g id="freepik--character-2--inject-111"><polygon points="178.08 301.11 136.75 301.11 113.08 183.15 150.94 165.76 178.08 301.11" style="fill:#37474f"></polygon><polygon points="296.4 301.11 178.08 301.11 150.94 165.76 269.25 165.76 296.4 301.11" style="fill:#455a64"></polygon><rect x="93.51" y="237.82" width="63.35" height="129.99" style="fill:#37474f"></rect><polygon points="326.81 367.81 309.5 367.81 283.71 237.82 326.81 237.82 326.81 367.81" style="fill:#37474f"></polygon><rect x="156.86" y="237.82" width="34.81" height="129.99" style="fill:#455a64"></rect><rect x="326.81" y="237.82" width="34.81" height="129.99" style="fill:#455a64"></rect><rect x="191.67" y="301.1" width="135.14" height="66.71" style="fill:#455a64"></rect><rect x="191.67" y="272.27" width="135.14" height="29.11" style="fill:#455a64"></rect><path d="M165.39,237.82l13.14-.24,13.14-.16h.4v.4l.15,15.21.05,15.22c0,10.14.07,20.28,0,30.42s0,20.28-.18,30.43-.22,20.28-.44,30.42q-.31-15.21-.44-30.42c-.13-10.15-.14-20.29-.17-30.43s0-20.28,0-30.42l.05-15.22.15-15.21.4.4-13.14-.17Z" style="fill:#263238"></path><path d="M326.81,237.82c.27,10.18.4,20.36.5,30.54l.16,30.54-.16,30.53-.18,15.27L326.81,360l-.32-15.27-.19-15.27-.15-30.53.16-30.54C326.41,258.18,326.54,248,326.81,237.82Z" style="fill:#263238"></path><path d="M326.81,301.1c-11.26.28-22.52.4-33.79.51l-33.78.15-33.78-.15-16.9-.18-16.89-.33,16.89-.32,16.9-.18,33.78-.15,33.78.15C304.29,300.71,315.55,300.83,326.81,301.1Z" style="fill:#263238"></path><path d="M326.81,272.27c-11.26.27-22.52.39-33.79.5l-33.78.15-33.78-.15-16.9-.18-16.89-.32,16.89-.33,16.9-.18,33.78-.15,33.78.15C304.29,271.87,315.55,272,326.81,272.27Z" style="fill:#263238"></path><polygon points="117.58 367.81 116.72 378.34 114.72 402.68 105.55 402.68 103.55 378.34 102.69 367.81 117.58 367.81" style="fill:#c7c7c7"></polygon><polygon points="102.69 367.81 117.58 367.81 116.72 378.34 103.55 378.34 102.69 367.81" style="fill:#a6a6a6"></polygon><polygon points="181.71 367.81 180.85 378.34 178.85 402.68 169.68 402.68 167.68 378.34 166.82 367.81 181.71 367.81" style="fill:#c7c7c7"></polygon><polygon points="166.82 367.81 181.71 367.81 180.85 378.34 167.68 378.34 166.82 367.81" style="fill:#a6a6a6"></polygon><polygon points="288.08 367.81 287.22 378.34 285.22 402.68 276.05 402.68 274.04 378.34 273.19 367.81 288.08 367.81" style="fill:#c7c7c7"></polygon><polygon points="273.19 367.81 288.08 367.81 287.22 378.34 274.04 378.34 273.19 367.81" style="fill:#a6a6a6"></polygon><polygon points="352.22 367.81 351.36 378.34 349.36 402.68 340.19 402.68 338.19 378.34 337.33 367.81 352.22 367.81" style="fill:#c7c7c7"></polygon><polygon points="352.22 367.81 351.36 378.34 338.19 378.34 337.33 367.81 352.22 367.81" style="fill:#a6a6a6"></polygon><path d="M408.17,414.13c-2.57.85-78.06.37-80.85-1.43-.33-.19-.43-7-.42-16.37v-.18c0-5.92-1.68-50.77-1.68-50.77l47.24-.26,2.81,44.08s10.19,4.28,19.05,8.53l0,0c5.48,2.61,10.22,5,11.32,5.86C408.49,405.89,410.74,413.29,408.17,414.13Z" style="fill:#ad6359"></path><path d="M408.17,414.12c-2.57.87-78.06.37-80.85-1.42-.32-.19-.42-6.49-.41-15.27,5.77.86,58.06,8.57,68,7.81,10.52-.79-6.3-10-6.3-10h.29c1.8.82,3.64,1.68,5.43,2.54l0,0c5.48,2.61,10.22,5,11.32,5.85C408.49,405.89,410.74,413.29,408.17,414.12Z" style="fill:#455a64"></path><path d="M380.68,414.51c-22.77-.1-51.64-.71-53.35-1.82-.33-.18-.43-6.49-.42-15.27,3.45.51,23.45,3.47,41.13,5.62Z" style="fill:#37474f"></path><path d="M255.45,211.66l7.44,17s76.54,6.83,93.41,29.47c19.37,26,18.73,128.6,18.73,128.6l-48.12-1.07s-6.08-86.63-11.75-94.37S226.81,276,211.47,264.07s-3.92-53-3.92-53Z" style="fill:#ad6359"></path><path d="M369.22,414.8c-2.57.86-78.06.38-80.85-1.42-.33-.2-.43-7-.42-16.37v-.18c0-5.93-1.69-50.77-1.69-50.77l47.25-.27,2.81,44.08s10.18,4.29,19.05,8.54l0,0c5.47,2.6,10.22,5,11.31,5.85C369.54,406.57,371.79,414,369.22,414.8Z" style="fill:#ad6359"></path><path d="M369.22,414.8c-2.57.86-78.06.37-80.85-1.43-.33-.19-.44-6.73-.42-15.76,9.61,1.41,57.38,8.36,66.82,7.63,10.26-.77-5.51-9.61-6.27-10,2.25,1,4.6,2.1,6.87,3.18,0,0,0,0,0,0,5.47,2.61,10.23,5,11.31,5.85C369.54,406.57,371.79,414,369.22,414.8Z" style="fill:#455a64"></path><path d="M336.14,387.36l-48.41-.17S286,294,275.78,286.5c-8.87-6.47-50.32-8-72.73-24.22C184.86,249.13,201,211,201,211l48.93.93s6.6,11.84,7.7,16.46c0,0,53.11,14.52,67.89,33.25C342.07,282.63,336.14,387.36,336.14,387.36Z" style="fill:#ad6359"></path><path d="M348.5,395.21l-12.26-5.16-.12-.05v-.13c.28-10.15.39-20.31.43-30.46s-.11-20.31-.36-30.45q-.19-7.62-.6-15.21c-.28-5.07-.62-10.13-1-15.19s-1-10.09-1.83-15.1a80.69,80.69,0,0,0-3.56-14.77,76.1,76.1,0,0,1,4,14.7c.92,5,1.57,10.05,2.1,15.11,1.08,10.11,1.56,20.27,1.91,30.43s.34,20.32.26,30.48-.41,20.32-.91,30.47l-.11-.19Z" style="fill:#263238"></path><path d="M201,211s-15.62,32.34-1.26,51.56,70.46,23,73.53,26.25,4,32.84,4,32.84,39.29,8,58.6-1.09c14.9-7,28.47-7.91,36.3-9.8,0,0,2.3-50.39-30.94-65.69s-71.06-17.48-74.59-20-11.18-13.42-11.18-13.42Z" style="fill:#263238"></path><path d="M306.37,249.9a93,93,0,0,1,13.7,7.35,56.6,56.6,0,0,1,6.25,4.69,26.58,26.58,0,0,1,5.23,5.89,11.73,11.73,0,0,1,1.48,3.72c.3,1.29.49,2.57.68,3.86.34,2.58.62,5.16.8,7.74.38,5.17.61,10.35.66,15.52l-.69-7.73c-.22-2.57-.46-5.15-.74-7.72s-.54-5.13-.93-7.68-.76-5.1-2.12-7.2a25.52,25.52,0,0,0-5-5.73,69.55,69.55,0,0,0-6.08-4.72c-2.11-1.49-4.29-2.87-6.51-4.18S308.66,251.11,306.37,249.9Z" style="fill:#37474f"></path><path d="M338.83,283.22c0,2.22-.15,4.42-.27,6.62s-.29,4.39-.44,6.58l-.53,6.57c-.1,1.1-.17,2.19-.23,3.29a20.08,20.08,0,0,0,0,3.29,27.16,27.16,0,0,1-.51-6.61c0-2.21.15-4.41.3-6.61s.39-4.4.68-6.59S338.39,285.39,338.83,283.22Z" style="fill:#37474f"></path><path d="M260.23,157.26c4,8.18,17.18,37.24,18.22,38.6s34.91-9.29,41.86-10.15c4.72-.59,11.8,32,6.43,33.38-13.34,3.46-56.07,11.85-65.2,3s-13.05-49-14.57-58.59C244.86,150.26,253.72,144.12,260.23,157.26Z" style="fill:#ad6359"></path><path d="M322.14,220.21s16.05.65,23.22-13.13c2.95-5.68,7.32-17.92-1.59-34.8-2.12-4-8-8.21-6.89-.42.76,5.54,2.92,8.82,2.78,12.12,0,0-8.08-4.47-12-2.19a59.63,59.63,0,0,0-9.07,5.73,4.73,4.73,0,0,0,.31,2.9s-7.45,7-5.25,19.18Z" style="fill:#ad6359"></path><path d="M315,206.77a22.22,22.22,0,0,1-.39-3.15,22.92,22.92,0,0,1,0-3.21,16.62,16.62,0,0,1,1.71-6.17c.29-.58.62-1.15,1-1.71s.75-1.15,1.08-1.76c0,0,0-.1-.07-.06a19.74,19.74,0,0,0-2.25,2.9,13.2,13.2,0,0,0-1.47,3,14.81,14.81,0,0,0-.57,6.48,20.58,20.58,0,0,0,.89,3.64C314.88,206.84,315,206.83,315,206.77Z" style="fill:#263238"></path><polygon points="307.04 197.43 306.79 197.11 350.11 160.95 351.62 162.83 307.04 197.43" style="fill:#a6a6a6"></polygon><path d="M352.28,163.65a2.26,2.26,0,1,1,.35-3.17A2.25,2.25,0,0,1,352.28,163.65Z" style="fill:#a6a6a6"></path><path d="M345.19,202.68c-.13-3.35-.54-10.45-2.9-16.13-2.61-6.32-9.35-17.78-14-15.81-3.41,1.45-1.22,6.06-1.22,6.06s-3.78-4.15-6.57-2.17c-2.54,1.81-.64,5.27-.64,5.27s-2.72-2.13-4.84.08c-2.54,2.66,3.6,6.68,3.35,11.6C318.33,192.68,345.19,202.68,345.19,202.68Z" style="fill:#ad6359"></path><path d="M336.08,190.42a27.15,27.15,0,0,0-8.86-13.61c-.11-.08-.23,0-.15.06A66.87,66.87,0,0,1,336,190.45,0,0,0,0,0,336.08,190.42Z" style="fill:#263238"></path><path d="M329.63,192.88c-.84-2.65-4.54-9.43-9.66-13.06-.11-.08-.23,0-.14.06a72.28,72.28,0,0,1,9.74,13A0,0,0,0,0,329.63,192.88Z" style="fill:#263238"></path><path d="M309.66,187.12l5.43,35.5s-47.75,10.74-55.1-.77-13.86-50.95-13.5-64.78c.28-10.71,7.75-10.16,12.56-2.71,4.36,6.77,20.89,39.48,20.82,40.23C279.84,195,309.66,187.12,309.66,187.12Z" style="fill:#FFFFFF"></path><path d="M309.66,187.12l5.43,35.5s-47.75,10.74-55.1-.77-13.86-50.95-13.5-64.78c.28-10.71,7.75-10.16,12.56-2.71,4.36,6.77,20.89,39.48,20.82,40.23C279.84,195,309.66,187.12,309.66,187.12Z" style="opacity:0.2"></path><path d="M257.74,152.58a1,1,0,0,1-.81.42,1,1,0,0,1-.57-1.86A12.68,12.68,0,0,1,257.74,152.58Zm-.81,17a1,1,0,1,0,1,1A1,1,0,0,0,256.93,169.58Zm-6.12-9.16a1,1,0,1,0,1,1A1,1,0,0,0,250.81,160.42Zm11.79.1a1,1,0,0,0,.44,1.93,1,1,0,0,0,.53-.15C263.23,161.68,262.9,161.09,262.6,160.52Zm-5.67,27.69a1,1,0,1,0,1,1A1,1,0,0,0,256.93,188.21Zm12.22,0a1,1,0,1,0,1,1A1,1,0,0,0,269.15,188.21Zm36.68,0a1,1,0,1,0,1,1A1,1,0,0,0,305.83,188.21Zm-55-9.17a1,1,0,1,0,1,1A1,1,0,0,0,250.81,179ZM263,179a1,1,0,1,0,1,1A1,1,0,0,0,263,179Zm-6.11,27.79a1,1,0,1,0,1,1A1,1,0,0,0,256.93,206.83Zm12.22,0a1,1,0,1,0,1,1A1,1,0,0,0,269.15,206.83Zm12.23,0a1,1,0,1,0,1,1A1,1,0,0,0,281.38,206.83Zm12.23,0a1,1,0,1,0,1,1A1,1,0,0,0,293.61,206.83Zm12.22,0a1,1,0,1,0,1,1A1,1,0,0,0,305.83,206.83ZM263,197.66a1,1,0,1,0,1,1A1,1,0,0,0,263,197.66Zm12.23,0a1,1,0,1,0,1,1A1,1,0,0,0,275.27,197.66Zm12.22,0a1,1,0,1,0,1,1A1,1,0,0,0,287.49,197.66Zm12.23,0a1,1,0,1,0,1,1A1,1,0,0,0,299.72,197.66Zm11.59.23a1,1,0,0,0,.26,1.74Zm-42.16,27.56a1,1,0,0,0-1,.82c.64.13,1.31.25,2,.35a.39.39,0,0,0,0-.15A1,1,0,0,0,269.15,225.45Zm12.23,0a1,1,0,0,0-1,1,1,1,0,0,0,.27.68l1.54-.05a.94.94,0,0,0,.23-.63A1,1,0,0,0,281.38,225.45Zm12.23,0a1,1,0,0,0-1,.86l1.93-.23A1,1,0,0,0,293.61,225.45ZM263,216.28a1,1,0,1,0,1,1A1,1,0,0,0,263,216.28Zm12.23,0a1,1,0,1,0,1,1A1,1,0,0,0,275.27,216.28Zm12.22,0a1,1,0,1,0,1,1A1,1,0,0,0,287.49,216.28Zm12.23,0a1,1,0,1,0,1,1A1,1,0,0,0,299.72,216.28Zm12.22,0a1,1,0,1,0,1,1A1,1,0,0,0,311.94,216.28Z" style="fill:#fff"></path><path d="M306.15,221.14q-1.44-7.29-2.52-14.64c-.35-2.42-.74-4.83-1.05-7.25s-.46-5-.78-7.53c0-.18.24-.24.27-.06.4,2.41,1,4.78,1.38,7.19s.75,5,1.12,7.46q1.08,7.37,1.8,14.78C306.39,221.23,306.18,221.28,306.15,221.14Z" style="fill:#263238"></path><path d="M292.82,226.28C279.3,227.8,263.91,228,260,221.85c-7.34-11.52-13.86-50.95-13.49-64.78.21-7.94,4.37-9.69,8.47-7Z" style="opacity:0.1"></path><path d="M263.64,221.52l-66.35-5.29s23.67-55.48,40.09-67.3c7.48-5.38,16-1.93,20.25,3.32,1.06,1.31,10.3,23.3,10.26,30.56,0,6.42-6.41,12.29-6.41,12.29Z" style="fill:#FFFFFF"></path><g style="opacity:0.2"><path d="M263.64,221.52l-66.35-5.29s23.67-55.48,40.09-67.3c7.48-5.38,16-1.93,20.25,3.32,1.06,1.31,10.3,23.3,10.26,30.56,0,6.42-6.41,12.29-6.41,12.29Z"></path></g><path d="M253.25,191.42a59.69,59.69,0,0,0-8.87,0c-1.47.12-2.92.32-4.38.54-.72.11-1.45.2-2.17.28a9.32,9.32,0,0,1-2.3.05c-.07,0-.08.09,0,.11a15.54,15.54,0,0,0,2.14.31,14.87,14.87,0,0,0,2.11,0c1.49-.11,3-.3,4.46-.43,3-.26,6-.52,9-.56C253.38,191.67,253.39,191.43,253.25,191.42Z" style="fill:#263238"></path><path d="M260,195.19a64.21,64.21,0,0,0-7.16-1.54c-1.21-.19-2.42-.3-3.64-.39l-1.74-.09c-.65,0-1.29,0-1.93,0a.05.05,0,1,0,0,.1c.61.05,1.2.2,1.8.28l1.81.26c1.21.17,2.41.35,3.62.51,2.42.32,4.82.66,7.23,1.06C260.11,195.41,260.13,195.23,260,195.19Z" style="fill:#263238"></path><path d="M245.72,152a1,1,0,1,1-1-1A1,1,0,0,1,245.72,152Zm11.91.27c-.34-.42-.71-.82-1.09-1.21h0a1,1,0,0,0,.4,2,1,1,0,0,0,.86-.49A1.54,1.54,0,0,0,257.63,152.25Zm-36.81,17.51c-.36.58-.7,1.16-1,1.74a1,1,0,0,0,.48.12,1,1,0,0,0,.57-1.86Zm11.65-.18a1,1,0,1,0,1,1A1,1,0,0,0,232.47,169.58Zm12.23,0a1,1,0,1,0,1,1A1,1,0,0,0,244.7,169.58Zm12.23,0a1,1,0,1,0,1,1A1,1,0,0,0,256.93,169.58Zm-30.08-9c-.39.54-.77,1.09-1.16,1.65a1,1,0,0,0,.67.25,1,1,0,0,0,.49-1.9Zm11.74-.13a1,1,0,1,0,1,1A1,1,0,0,0,238.59,160.42Zm12.22,0a1,1,0,1,0,1,1A1,1,0,0,0,250.81,160.42Zm-30.56,27.79a1,1,0,1,0,1,1A1,1,0,0,0,220.25,188.21Zm12.22,0a1,1,0,1,0,1,1A1,1,0,0,0,232.47,188.21Zm12.23,0a1,1,0,1,0,1,1A1,1,0,0,0,244.7,188.21Zm12.23,0a1,1,0,1,0,1,1A1,1,0,0,0,256.93,188.21Zm-41.85-8.52-.74,1.37a1,1,0,0,0,.81-1A.9.9,0,0,0,215.08,179.69Zm11.28-.65a1,1,0,1,0,1,1A1,1,0,0,0,226.36,179Zm12.23,0a1,1,0,1,0,1,1A1,1,0,0,0,238.59,179Zm12.22,0a1,1,0,1,0,1,1A1,1,0,0,0,250.81,179ZM263,179a1,1,0,1,0,1,1A1,1,0,0,0,263,179Zm-55,27.79a1,1,0,1,0,1,1A1,1,0,0,0,208,206.83Zm12.23,0a1,1,0,1,0,0,2,1,1,0,1,0,0-2Zm12.22,0a1,1,0,1,0,1,1A1,1,0,0,0,232.47,206.83Zm12.23,0a1,1,0,1,0,1,1A1,1,0,0,0,244.7,206.83Zm12.23,0a1,1,0,1,0,1,1A1,1,0,0,0,256.93,206.83Zm-42.8-9.17a1,1,0,1,0,1,1A1,1,0,0,0,214.13,197.66Zm12.23,0a1,1,0,1,0,1,1A1,1,0,0,0,226.36,197.66Zm12.23,0a1,1,0,1,0,1,1A1,1,0,0,0,238.59,197.66Zm12.22,0a1,1,0,1,0,1,1A1,1,0,0,0,250.81,197.66Zm-48.9,18.62a1,1,0,0,0-.67.26l1.45.12A1,1,0,0,0,201.91,216.28Zm12.22,0a1,1,0,0,0-1,1,1.11,1.11,0,0,0,0,.19l2,.16a1,1,0,0,0,.06-.35A1,1,0,0,0,214.13,216.28Zm12.23,0a1,1,0,1,0,1,1A1,1,0,0,0,226.36,216.28Zm12.23,0a1,1,0,1,0,1,1A1,1,0,0,0,238.59,216.28Zm12.22,0a1,1,0,1,0,1,1A1,1,0,0,0,250.81,216.28Zm12.4,0-.17,0a1,1,0,1,0,0,2,.88.88,0,0,0,.33-.06Z" style="fill:#fff"></path><path d="M246.19,149.59c-.26,1.18,3.56,11.71,8.54,13.82.79.33,1.32-4.74,1.32-4.74,1.28-2.14,2.38-4.44,2.38-4.44l.45-.57,6.31-8-7.29-11.83-1.09-1.62s-1.59,2.3-3.53,5.19l-.28.41-.32.47c-.3.43-.6.87-.89,1.31s-.44.66-.66,1l-.67,1.07A65.43,65.43,0,0,0,246.19,149.59Z" style="fill:#ad6359"></path><path d="M253.28,137.39a20.46,20.46,0,0,0,5.6,16.27l6.31-8-7.29-11.83-1.09-1.62S255.22,134.5,253.28,137.39Z" style="fill:#263238"></path><path d="M282.09,134.7c-3.63,17.53-14.54,17.33-18.32,16.55-3.43-.72-15-3.59-13.22-21.4s11.11-21.66,19-20.44S285.73,117.17,282.09,134.7Z" style="fill:#ad6359"></path><path d="M276.5,132.25c-.39-.14-.74-.33-1.11-.5a2,2,0,0,1-1-.73.62.62,0,0,1,.16-.75,1.54,1.54,0,0,1,1.58,0,2.31,2.31,0,0,1,1.24,1.1A.68.68,0,0,1,276.5,132.25Z" style="fill:#c7c7c7"></path><path d="M264.89,130.26c.42,0,.81,0,1.23,0a2,2,0,0,0,1.24-.23.62.62,0,0,0,.16-.75,1.54,1.54,0,0,0-1.42-.69,2.3,2.3,0,0,0-1.58.49A.67.67,0,0,0,264.89,130.26Z" style="fill:#c7c7c7"></path><path d="M266.74,134c0-.05-.1,0-.11.09-.19,1.19-.61,2.52-1.75,2.71,0,0,0,.06,0,.07C266.22,136.92,266.75,135.15,266.74,134Z" style="fill:#263238"></path><path d="M265.92,132.55c-1.87-.51-2.75,3.28-1,3.75S267.49,133,265.92,132.55Z" style="fill:#263238"></path><path d="M265.13,132.58c-.38.14-.79.44-1.2.39s-.73-.54-.94-1c0,0-.06,0-.08,0a1.43,1.43,0,0,0,.68,1.83c.69.26,1.35-.26,1.7-1C265.36,132.75,265.28,132.52,265.13,132.58Z" style="fill:#263238"></path><path d="M273.29,135.27s.08.08.07.13c-.32,1.16-.49,2.55.47,3.19,0,0,0,.08,0,.06C272.56,138.16,272.8,136.32,273.29,135.27Z" style="fill:#263238"></path><path d="M274.63,134.3c1.92.31,1.16,4.13-.62,3.84S273,134,274.63,134.3Z" style="fill:#263238"></path><path d="M275.38,134.71c.26.27.48.69.84.79s.8-.24,1.15-.59c0,0,.05,0,.05.06-.13.73-.52,1.44-1.25,1.44s-1-.72-1-1.48C275.13,134.79,275.27,134.61,275.38,134.71Z" style="fill:#263238"></path><path d="M264.57,143.86c.2.34.37.8.78.95a3.14,3.14,0,0,0,1.33.06,0,0,0,0,1,0,.07,1.64,1.64,0,0,1-1.65.22,1.3,1.3,0,0,1-.63-1.28C264.44,143.8,264.54,143.8,264.57,143.86Z" style="fill:#263238"></path><path d="M270.54,140.27s-.19,2.08-.37,2.91a5.4,5.4,0,0,1-4-2.57c-.05-.09.08-.15.15-.08a6.08,6.08,0,0,0,3.33,1.9c.11-.22.18-3.19.32-3.17a7.34,7.34,0,0,1,1.79.84c.4-3.77.21-7.56.67-11.31a.12.12,0,0,1,.23,0,61.33,61.33,0,0,1-.21,12.2C272.41,141.48,270.84,140.48,270.54,140.27Z" style="fill:#263238"></path><g style="opacity:0.2"><path d="M271.37,126.81a16.09,16.09,0,0,0,1.92.43c.67.07,1.34,0,2,.1a10.84,10.84,0,0,1,3.52,1.32c.1.05.07.12,0,.07a9.37,9.37,0,0,0-3.78-1.1,12.07,12.07,0,0,1-3.23-.41,11.75,11.75,0,0,0-7.27-.32s0,0,0,0A11.77,11.77,0,0,1,271.37,126.81Z"></path><path d="M271.59,125.06a12.6,12.6,0,0,0,1.82.41c.63.07,1.26,0,1.89.1a10.11,10.11,0,0,1,3.34,1.25c.09.05.07.11,0,.06a8.86,8.86,0,0,0-3.58-1,10.9,10.9,0,0,1-3.06-.4,11.24,11.24,0,0,0-6.9-.29s0,0,0,0A11.14,11.14,0,0,1,271.59,125.06Z"></path></g><path d="M266.16,137.91l-1.63,2.28a4.87,4.87,0,0,1-2.27,1.68,14.6,14.6,0,0,1-5.55.79c.93-.07,1.86-.17,2.78-.32a12.15,12.15,0,0,0,2.68-.7,4.71,4.71,0,0,0,2.2-1.57C265,139.35,265.53,138.6,266.16,137.91Z" style="opacity:0.2"></path><path d="M272.9,140.28c0,1.05-.17,2.07-.2,3.1a3.15,3.15,0,0,0,.24,1.48c.18.48.37,1,.58,1.44a9.54,9.54,0,0,1-.75-1.37,3.09,3.09,0,0,1-.32-1.55A15.46,15.46,0,0,1,272.9,140.28Z" style="opacity:0.2"></path><path d="M269.5,142.77a4.8,4.8,0,0,1-2.19,1.07,2.16,2.16,0,0,1-1.31-.19c-.88-.44-.72-1.3-.4-2a5.57,5.57,0,0,1,.65-1A6.28,6.28,0,0,0,269.5,142.77Z" style="fill:#263238"></path><path d="M267.31,143.84a2.16,2.16,0,0,1-1.31-.19c-.88-.44-.72-1.3-.4-2A2.23,2.23,0,0,1,267.31,143.84Z" style="fill:#ff9cbd"></path><path d="M250.45,132.84c4.31-.85,5.56-5.52,5.56-5.52,13.64-.63,18.65-10,18.65-10,3,8.21,7.85,10.24,8.28,11.47,0,0,1.34-7.09-1-12.51a14.87,14.87,0,0,0-15.92-8.9c-4.8.59-8.87,4.73-8.87,4.73s-5.19.53-7.33,4.7C246.21,123.84,250.45,132.84,250.45,132.84Z" style="fill:#c7c7c7"></path><path d="M274.86,116.68a12.72,12.72,0,0,1-3.14,5.41,16.15,16.15,0,0,1-5.2,3.59l-1.49.56c-.5.17-1,.27-1.53.41a19.56,19.56,0,0,1-3.12.53,41.82,41.82,0,0,1-5.13-.19c1.05,0,.94,0,2,0s2.07-.13,3.09-.28a23,23,0,0,0,5.95-1.59,16.88,16.88,0,0,0,5.11-3.35A14.63,14.63,0,0,0,274.86,116.68Z" style="fill:#c7c7c7"></path><path d="M249.18,136.31a3.89,3.89,0,0,0,.74.44,2.58,2.58,0,0,0,.8.26,2.44,2.44,0,0,0,1.08,0,3,3,0,0,0,.8-.31,3.48,3.48,0,0,0,.94-.77l.42-4.86s-2.14-6.48-5-5.87S246.65,134.39,249.18,136.31Z" style="fill:#ad6359"></path><path d="M249.19,127.64s-.07,0,0,.07c1.76,1.41,2.26,3.58,2.42,5.72a1.68,1.68,0,0,0-2.27-1.15c-.06,0,0,.12,0,.12a1.85,1.85,0,0,1,1.77,1.21,8.69,8.69,0,0,1,.47,1.87c0,.21.39.21.38,0v-.05C252.76,132.88,251.85,128.72,249.19,127.64Z" style="fill:#263238"></path><path d="M249.64,135.66a.82.82,0,0,0,.75.9.83.83,0,1,0,.15-1.65A.82.82,0,0,0,249.64,135.66Z" style="fill:#fff"></path><path d="M248.36,134a.59.59,0,1,0,.64-.53A.59.59,0,0,0,248.36,134Z" style="fill:#fff"></path><path d="M259,111.83c-1,1.6-11,1.22-14.32-6.11s3.69-14.38,10.91-9.3C260.2,99.63,261.17,108.45,259,111.83Z" style="fill:#c7c7c7"></path><path d="M246,96.7a11.09,11.09,0,0,1,6.91-2.39,6.7,6.7,0,0,1,5.83,3.24,13.38,13.38,0,0,1,1.77,7,20.42,20.42,0,0,1-.31,3.73,10.19,10.19,0,0,1-1.17,3.58,8.94,8.94,0,0,0,1.84-3.42,16.7,16.7,0,0,0,.74-3.85A13.05,13.05,0,0,0,260,96.8a7.44,7.44,0,0,0-7.06-3.58A9.78,9.78,0,0,0,246,96.7Z" style="fill:#c7c7c7"></path><path d="M247.45,162.51c2.39,10.63,7.26,50.22,5.77,54.6-1.78,5.22-11.72,23.47-24.09,11.8-8.56-8.08-.66-55.11,5.65-72.14C237.86,148.46,243.45,144.7,247.45,162.51Z" style="fill:#ad6359"></path><path d="M247.45,162.51c2.39,10.63,7.26,50.22,5.77,54.6-1.78,5.22-11.72,23.47-24.09,11.8-8.56-8.08-.66-55.11,5.65-72.14C237.86,148.46,243.45,144.7,247.45,162.51Z" style="fill:#FFFFFF"></path><path d="M247.45,162.51c2.39,10.63,7.26,50.22,5.77,54.6-1.78,5.22-11.72,23.47-24.09,11.8-8.56-8.08-.66-55.11,5.65-72.14C237.86,148.46,243.45,144.7,247.45,162.51Z" style="opacity:0.2"></path><path d="M244.16,152.84a1,1,0,0,1-.47-.76A7.65,7.65,0,0,1,244.16,152.84Zm-11.69,16.74a1,1,0,1,0,1,1A1,1,0,0,0,232.47,169.58Zm12.23,0a1,1,0,1,0,1,1A1,1,0,0,0,244.7,169.58Zm-6.11-9.16a1,1,0,1,0,1,1A1,1,0,0,0,238.59,160.42Zm-6.12,27.79a1,1,0,1,0,1,1A1,1,0,0,0,232.47,188.21Zm12.23,0a1,1,0,1,0,1,1A1,1,0,0,0,244.7,188.21ZM238.59,179a1,1,0,1,0,1,1A1,1,0,0,0,238.59,179Zm11.59.22a1,1,0,0,0-.39.8,1,1,0,0,0,.62.94C250.34,180.41,250.26,179.83,250.18,179.26Zm-17.71,27.57a1,1,0,1,0,1,1A1,1,0,0,0,232.47,206.83Zm12.23,0a1,1,0,1,0,1,1A1,1,0,0,0,244.7,206.83Zm-18.34-9.17h-.14c-.07.66-.14,1.31-.19,2a.88.88,0,0,0,.33.06,1,1,0,0,0,0-2Zm12.23,0a1,1,0,1,0,1,1A1,1,0,0,0,238.59,197.66Zm12.22,0a1,1,0,1,0,1,1A1,1,0,0,0,250.81,197.66Zm-18.34,27.79a1,1,0,1,0,1,1A1,1,0,0,0,232.47,225.45Zm12.23,0a1,1,0,1,0,1,1A1,1,0,0,0,244.7,225.45Zm-18.34-9.17a1,1,0,0,0-.83.44c0,.43.05.86.09,1.27h0a1,1,0,0,0,.74.32,1,1,0,0,0,0-2Zm12.23,0a1,1,0,1,0,1,1A1,1,0,0,0,238.59,216.28Zm12.22,0a1,1,0,1,0,1,1A1,1,0,0,0,250.81,216.28Z" style="fill:#fff"></path><path d="M225.52,217c-.23-3.83-.23-7.66-.13-11.49s.38-7.65.72-11.47.95-7.61,1.65-11.38a92.16,92.16,0,0,1,2.85-11.13c-.4,1.87-.91,3.71-1.24,5.6s-.72,3.75-1,5.63c-.59,3.77-1.13,7.55-1.47,11.35s-.68,7.61-.9,11.42S225.59,213.12,225.52,217Z" style="fill:#263238"></path><path d="M228,176.29a24.5,24.5,0,0,1,.13,3.31c0,1.1-.08,2.19-.16,3.3a8.39,8.39,0,0,1-.29-1.65,15.34,15.34,0,0,1-.05-1.66A16.68,16.68,0,0,1,228,176.29Z" style="fill:#263238"></path><path d="M249.09,172.43c.44,1.94.8,3.9,1.13,5.86s.63,3.93.9,5.89.51,3.95.7,5.93.35,4,.39,5.95c-.35-2-.66-3.92-1-5.88s-.58-3.93-.86-5.89-.52-3.94-.73-5.92S249.23,174.42,249.09,172.43Z" style="fill:#263238"></path><path d="M250.69,175.4a12.93,12.93,0,0,1,.2,3,11.3,11.3,0,0,1-.52,3c0-.51,0-1,0-1.51s0-1,0-1.51A23.78,23.78,0,0,1,250.69,175.4Z" style="fill:#263238"></path><polygon points="318.67 199.91 318.34 200.14 284.98 154.63 286.95 153.24 318.67 199.91" style="fill:#a6a6a6"></polygon><path d="M287.81,152.63a2.26,2.26,0,1,1-3.15-.54A2.26,2.26,0,0,1,287.81,152.63Z" style="fill:#a6a6a6"></path><path d="M302,175.4s10.34,14.24,11.52,14.37,4.08-1.69,4.08-1.69S329,204.19,326.15,211s-8.14,17.36-5.68,23.45,16.17,13.24,16.17,13.24-9.13,7.45-16.84,8.3-16.38,7.27-23.4,11.86c0,0-11.59-15-12.69-27.45s11.37-31.77,14.16-39.13S302,175.4,302,175.4Z" style="fill:#FFFFFF"></path><g style="opacity:0.1"><path d="M322.88,196.85h0c-2.87,1.46-6.2,2.78-8.93,2.78a7.4,7.4,0,0,1-1.44-.14c-4.38-.93-9-4.27-12.47-7.34.48-2.87.87-5.88,1.18-8.54,3.07,3.17,8.62,8.15,12.74,9,.85.11,3-.67,5.42-1.9C320.38,192.33,321.67,194.49,322.88,196.85Z"></path><path d="M326,204.4c-4.38,2.26-10.5,5.19-13.15,5.35h-.18c-3.11,0-10.65-4.53-15.21-7.46.15-.33.28-.65.39-.94,5,3.22,12.38,7.54,14.94,7.4s8.6-3.09,12.92-5.33C325.8,203.75,325.89,204.08,326,204.4Z"></path><path d="M330.43,244c-4.18,2.24-9.76,3.85-16.48,5.4-6.19,1.43-16.55,8.63-21.69,12.41l-.52-.85c5.24-3.86,15.68-11.07,22-12.53s11.73-3,15.76-5.07Z"></path><path d="M324.36,239.37c-3.9,1.25-12.94,4.14-18.12,5.66-5.63,1.64-15.38,4-20,5.1a38.26,38.26,0,0,1-2.07-6.7c4.34-1,14.51-3.48,20.11-5.12,4.26-1.25,11.42-3.52,15.86-4.94a6.33,6.33,0,0,0,.33,1.07A14.91,14.91,0,0,0,324.36,239.37Z"></path><path d="M320,228.84c0,.35-.07.7-.09,1a74.86,74.86,0,0,1-17.12,1.76A130.49,130.49,0,0,1,285,230.35c.08-.32.17-.65.28-1C291.48,230.26,307.29,232,320,228.84Z"></path><path d="M323.67,216.77a70.1,70.1,0,0,0-2.75,7.53,73.25,73.25,0,0,1-9.67.84l-1.26,0c-7.45-.33-16.58-4.28-20.65-6.23,1-2.18,2-4.31,3-6.31,3.63,1.72,11.77,5.27,17.92,5.54A72.33,72.33,0,0,0,323.67,216.77Z"></path></g><path d="M253.74,342.5l-.49-.88c21.12-11.67,21.93-44.86,20.53-63.6-2-27-3.13-44.86-1.8-65.48.87-13.61,10.08-25.77,17.7-32,4.79-4,9.31-6,12.4-5.58l-.13,1c-2.76-.36-7.12,1.65-11.64,5.36-7.46,6.15-16.48,18.05-17.34,31.35-1.32,20.55-.2,38.39,1.81,65.33C276.19,296.93,275.34,330.56,253.74,342.5Z" style="fill:#FFFFFF"></path><path d="M267.28,189.15c3.63-1.73,23.55,28.07,18.33,30.87-23.26,12.47-44.57,13.74-50,12.65-7.08-1.42-9.66-9.4-8-13.81C230.6,211.23,261.63,191.84,267.28,189.15Z" style="fill:#ad6359"></path><path d="M314.5,175.31c.9,3.79-8.64,5.21-8.64,5.21a7.19,7.19,0,0,1,3.73,3.16c1.36,2.63-2.18,5.91-2.18,5.91a9,9,0,0,1,3.41,4c1,2.66-2.06,6.47-2.06,6.47a7.81,7.81,0,0,1,.81,5.37c-1.23,4.85-25.9,15.48-28.95,16.87l-14.68-32s17.3-16.54,23-17.57C293.68,171.86,313.13,169.51,314.5,175.31Z" style="fill:#ad6359"></path><path d="M305.76,180.43c-5.3-.3-10.66.68-15.82,1.67-.11,0-.08.21,0,.18,5.12-1.05,10.64-.75,15.79-1.6A.13.13,0,0,0,305.76,180.43Z" style="fill:#263238"></path><path d="M307.18,189.24a13.57,13.57,0,0,0-3.56.62c-1.24.3-2.48.63-3.72,1q-3.7,1-7.35,2.26c-.11,0-.08.21,0,.18,2.47-.69,4.94-1.34,7.43-1.92,1.25-.29,2.49-.57,3.74-.84a16.58,16.58,0,0,0,3.5-.94A.18.18,0,0,0,307.18,189.24Z" style="fill:#263238"></path><path d="M308.66,200.05a9.5,9.5,0,0,0-3.18.73l-3.36,1c-2.25.65-4.5,1.3-6.76,1.88-.11,0-.08.2,0,.18,2.31-.58,4.62-1.12,6.92-1.71l3.39-.89a8.93,8.93,0,0,0,3-1.08A.06.06,0,0,0,308.66,200.05Z" style="fill:#263238"></path><path d="M263.63,188.73l16.83,37.4s-37.11,10.75-47,6.48c-8.26-3.57-7.36-12.63-4.68-16.35S255.3,192,263.63,188.73Z" style="fill:#FFFFFF"></path><path d="M263.63,188.73l16.83,37.4s-37.11,10.75-47,6.48c-8.26-3.57-7.36-12.63-4.68-16.35S255.3,192,263.63,188.73Z" style="opacity:0.2"></path><path d="M237.19,208.55a57,57,0,0,1,5.86-5.87c2.08-1.84,4.29-3.51,6.51-5.17s4.54-3.16,6.87-4.67,4.71-2.9,7.16-4.2l.09,0,0,.1.78,1.95-.95-1.88.13.05c-2.32,1.5-4.63,3-6.91,4.56s-4.54,3.12-6.78,4.73-4.42,3.29-6.58,5S239.18,206.63,237.19,208.55Z" style="fill:#263238"></path><path d="M239,205.41a3.7,3.7,0,0,1,.84-.79,6.63,6.63,0,0,1,1-.59,5.89,5.89,0,0,1,2.22-.58c-.67.4-1.34.71-2,1S239.69,205.11,239,205.41Z" style="fill:#263238"></path><path d="M258.33,196.63q3.3,6.66,6.26,13.47c1,2.24,2,4.47,2.91,6.72s1.77,4.73,2.73,7.06c.07.17-.17.3-.25.13-1-2.22-2.18-4.36-3.2-6.57s-2-4.61-3-6.91q-3-6.83-5.61-13.8A.11.11,0,0,1,258.33,196.63Z" style="fill:#263238"></path><path d="M245.72,207.85a1,1,0,1,1-1-1A1,1,0,0,1,245.72,207.85Zm11.21-1a1,1,0,1,0,1,1A1,1,0,0,0,256.93,206.83Zm12.22,0a1,1,0,1,0,1,1A1,1,0,0,0,269.15,206.83Zm-18.34-9.17a1,1,0,1,0,1,1A1,1,0,0,0,250.81,197.66Zm12.23,0a1,1,0,1,0,1,1A1,1,0,0,0,263,197.66Zm-30.57,27.79a1,1,0,1,0,1,1A1,1,0,0,0,232.47,225.45Zm12.23,0a1,1,0,1,0,1,1A1,1,0,0,0,244.7,225.45Zm12.23,0a1,1,0,1,0,1,1A1,1,0,0,0,256.93,225.45Zm12.22,0a1,1,0,1,0,1,1A1,1,0,0,0,269.15,225.45Zm11.29.63a.14.14,0,0,0,0,.06h0Zm-41.85-9.8a1,1,0,1,0,1,1A1,1,0,0,0,238.59,216.28Zm12.22,0a1,1,0,1,0,1,1A1,1,0,0,0,250.81,216.28Zm12.23,0a1,1,0,1,0,1,1A1,1,0,0,0,263,216.28Zm12.23,0a1,1,0,1,0,1,1A1,1,0,0,0,275.27,216.28Z" style="fill:#fff"></path></g><g id="freepik--character-1--inject-111"><path d="M246.93,433.28c-.61-1.73-32.26-41.79-34.38-42.53-.24-.09-13.81,10-13.81,10-.55.77-26.84-4.21-26.84-4.21l.4,31.58,47.66-2s6.51,3.65,12.47,6.61h0a71.16,71.16,0,0,0,7.83,3.59C242.67,436.87,247.55,435,246.93,433.28Z" style="fill:#ad6359"></path><path d="M240.28,436.31a67.27,67.27,0,0,1-7.83-3.6s0,0,0,0c-6-3-12.47-6.61-12.47-6.61l-10.61.45-17.17-26.46c3.66.57,6.39.9,6.56.65,0,0,13.56-10.09,13.81-10,2.12.73,33.77,40.79,34.38,42.52S242.68,436.88,240.28,436.31Z" style="fill:#fff"></path><path d="M247.22,433.33c-.65-1.77-32.44-41.8-34.61-42.56-.83-.3-7.48,4-13.87,10l20.53,25.79s18.63,9.38,21.11,10S247.86,435.1,247.22,433.33Z" style="fill:#FFFFFF"></path><path d="M245.16,434c-5.5-6.58-27-33.64-32-40.56,0-.06,0-.09,0,0,5.59,6.41,26.9,33.64,32,40.51C245.38,434.08,245.27,434.17,245.16,434Z" style="fill:#263238"></path><path d="M236.9,435.05a6.86,6.86,0,0,1-1.55-5.31,6.68,6.68,0,0,1,2.39-4.35s.1.05.06.09A8,8,0,0,0,237,435C237,435,236.94,435.11,236.9,435.05Z" style="fill:#263238"></path><path d="M221.61,428.1c-2.17-2.66-3.69-6.53-2.82-9.94,0-.13.22-.08.24,0a47.74,47.74,0,0,0,2.95,9.69A.22.22,0,0,1,221.61,428.1Z" style="fill:#263238"></path><path d="M224.07,429.53c-2.17-2.66-3.7-6.52-2.83-9.94,0-.13.22-.08.25,0a47.09,47.09,0,0,0,2.94,9.69A.21.21,0,0,1,224.07,429.53Z" style="fill:#263238"></path><path d="M226.52,431c-2.17-2.66-3.69-6.52-2.82-9.94,0-.13.22-.08.24,0a47.55,47.55,0,0,0,2.95,9.69A.22.22,0,0,1,226.52,431Z" style="fill:#263238"></path><path d="M229,432.39c-2.17-2.65-3.7-6.52-2.83-9.93,0-.14.22-.09.25,0a47.09,47.09,0,0,0,2.94,9.69A.21.21,0,0,1,229,432.39Z" style="fill:#263238"></path><path d="M208.18,400.24c-2.38-3,2.31-6.73,4.69-3.71S210.57,403.26,208.18,400.24Z" style="fill:#263238"></path><path d="M220.52,433.35c.72-2.93.14-6.08-.06-9a.41.41,0,0,0-.6-.31.08.08,0,0,0-.14,0,18,18,0,0,0-4.93,7.89c-.51,1.77-.25,4.36,2,4.82S220.1,435.06,220.52,433.35Zm-2.13,1.89c-3.13,2.06-3-2.36-2.56-3.65a19.11,19.11,0,0,1,1-2.42c.81-1.64,1.82-3.13,2.78-4.68,0,1.47.14,2.91.2,4.37C219.91,430.6,220.12,434.11,218.39,435.24Z" style="fill:#263238"></path><path d="M210.43,415.8c-1.58,1.6-.37,3.9,1,5.1a18,18,0,0,0,8.46,3.88.09.09,0,0,0,.11-.1.42.42,0,0,0,.33-.59c-1.47-2.58-2.72-5.52-4.93-7.58C214.12,415.31,211.93,414.28,210.43,415.8Zm6.89,4.83c.76,1.25,1.44,2.53,2.24,3.76-1.64-.76-3.32-1.45-4.89-2.37a19,19,0,0,1-2.19-1.46c-1.07-.84-3.63-4.44.12-4.45C214.67,416.1,216.43,419.14,217.32,420.63Z" style="fill:#263238"></path><path d="M201.42,392.05l-49.59-2.88s-21.5-8.55-38.54-4.07c-19.53,5.13-22.29,27.95-2.43,37.1,19.65,9.05,98.17,5.71,98.17,5.71l-18.54-28.29a221.57,221.57,0,0,0-45.43-4.5l51.6,4.56Z" style="fill:#455a64"></path><path d="M176.31,396.89c-3-.5-10.38-1.05-13.45-1.33s-6.18-.51-9.28-.71c-6.17-.39-4.39-.52-10.58-.28-.58,0-1.16.06-1.73.09l-.39-.09c-.3-.06-.59-.13-.89-.18-.56-.1-1.13-.17-1.69-.24-1.18-.16-2.35-.26-3.52-.45-.07,0-.1.1,0,.11,1.18.24,2.34.55,3.51.78l1,.2c-2.26.16-4.53.38-6.79.64a.06.06,0,1,0,0,.11c3.07-.25,6.18-.33,9.27-.35s6.13,0,9.19.11c6.2.22,21.8,2.11,25.28,2.19C176.58,397.49,176.65,396.94,176.31,396.89Z" style="fill:#263238"></path><path d="M200.17,427.28c-1.14-1.75-2.13-3.62-3.18-5.42s-2.11-3.62-3.17-5.43c-2.11-3.61-9.67-15.74-10.41-16.59,0,0-.14,0-.11.08.36.94,5.09,9,6.18,10.77,2.17,3.58,4.45,7.09,6.7,10.62.64,1,1.31,2,2,3s1.34,2,1.94,3C200.11,427.41,200.21,427.34,200.17,427.28Z" style="fill:#263238"></path><path d="M92.83,439.11c.53-1.76,30.25-43.27,32.33-44.11.24-.11,14.26,9.32,14.26,9.32.59.75,26.61-5.48,26.61-5.48l1.1,31.56-47.7.26s-6.33,3.95-12.14,7.19h0a72,72,0,0,1-7.65,4C97.25,442.49,92.29,440.85,92.83,439.11Z" style="fill:#ad6359"></path><path d="M99.62,441.82a70.78,70.78,0,0,0,7.65-4h0c5.8-3.24,12.14-7.2,12.14-7.2l10.62,0L146,403.36c-3.63.74-6.34,1.2-6.53,1,0,0-14-9.43-14.26-9.32-2.08.84-31.8,42.35-32.33,44.1S97.25,442.5,99.62,441.82Z" style="fill:#fff"></path><path d="M92.55,439.17c.56-1.8,30.41-43.29,32.55-44.16.81-.33,7.66,3.65,14.32,9.31l-19.28,26.73S102,441.3,99.52,442,92,441,92.55,439.17Z" style="fill:#FFFFFF"></path><path d="M94.64,439.77c5.17-6.84,25.4-34.88,30-42,0-.06,0-.08,0,0-5.28,6.66-25.29,34.87-30.08,42C94.42,439.83,94.53,439.91,94.64,439.77Z" style="fill:#263238"></path><path d="M102.94,440.4a6.86,6.86,0,0,0,1.29-5.38,6.7,6.7,0,0,0-2.59-4.23s-.1,0-.06.09a8,8,0,0,1,1.27,9.46A.05.05,0,1,0,102.94,440.4Z" style="fill:#263238"></path><path d="M117.87,432.73c2-2.76,3.39-6.69,2.35-10.06,0-.13-.22-.07-.24,0a47.61,47.61,0,0,1-2.48,9.82A.21.21,0,0,0,117.87,432.73Z" style="fill:#263238"></path><path d="M115.49,434.28c2-2.76,3.38-6.69,2.35-10.06,0-.13-.23-.07-.24,0a47.63,47.63,0,0,1-2.49,9.82A.22.22,0,0,0,115.49,434.28Z" style="fill:#263238"></path><path d="M113.11,435.82c2-2.75,3.38-6.69,2.35-10.06,0-.13-.23-.07-.25,0a47,47,0,0,1-2.48,9.82A.22.22,0,0,0,113.11,435.82Z" style="fill:#263238"></path><path d="M110.72,437.37c2-2.76,3.38-6.69,2.35-10.06,0-.13-.22-.07-.24,0a47,47,0,0,1-2.49,9.82A.22.22,0,0,0,110.72,437.37Z" style="fill:#263238"></path><path d="M130,404.27c2.24-3.13-2.62-6.62-4.86-3.48S127.73,407.4,130,404.27Z" style="fill:#263238"></path><path d="M123.14,441.08c2.18-.56,2.32-3.16,1.73-4.9a18,18,0,0,0-5.3-7.66.1.1,0,0,0-.14,0,.43.43,0,0,0-.59.34c0,3-.48,6.14.38,9C119.72,439.62,121.07,441.62,123.14,441.08Zm-3.46-7.67c0-1.46,0-2.91,0-4.37a53.16,53.16,0,0,1,3,4.54,19,19,0,0,1,1.14,2.36c.49,1.27.85,5.68-2.38,3.77C119.65,438.67,119.69,435.15,119.68,433.41Z" style="fill:#263238"></path><path d="M123.51,420.87c-2.11,2.15-3.22,5.15-4.57,7.8-.14.27.11.53.36.57,0,.06,0,.11.11.09a17.9,17.9,0,0,0,8.27-4.27c1.34-1.26,2.44-3.62.78-5.14S124.75,419.61,123.51,420.87Zm2.8-.55c3.74-.16,1.36,3.56.33,4.45a18.07,18.07,0,0,1-2.12,1.56,53.8,53.8,0,0,1-4.78,2.6c.75-1.26,1.37-2.58,2.06-3.86C122.63,423.54,124.24,420.42,126.31,420.32Z" style="fill:#263238"></path><path d="M164.23,391.44l9.25-.52s28.32-8.68,42.44-6.87c19.34,2.48,22.12,27.79,8.18,36.58-17.66,11.13-92.74,11.19-92.74,11.19l16.49-29.72A179.34,179.34,0,0,1,193.53,396l-29.18-.13Z" style="fill:#455a64"></path><path d="M146.75,404a.66.66,0,0,0,0-.15l0-.12.06-.29c0-.19.12-.38.19-.57a5.65,5.65,0,0,1,.23-.57,3.4,3.4,0,0,1,.31-.52l0,0,0,0,0,0,0,0c2.9-.62,22.67-4,25.61-4.4s5.94-.77,8.92-1.1c5.94-.66,7.09-1.07,13.07-1.12H197l.36-.1c.29-.07.57-.15.86-.21.53-.12,1.07-.21,1.62-.31,1.12-.2,2.25-.35,3.37-.59a.05.05,0,1,1,0,.1c-1.13.28-2.23.64-3.35.91l-1,.24c2.2.05,4.39.17,6.58.3.07,0,.07.12,0,.11-3-.09-6,0-8.95.1s-5.91.27-8.86.51c-6,.51-7.1,1.2-13,2-3.33.44-23.48,3.93-26.83,4.16h0a.92.92,0,0,1-.09.23,5.6,5.6,0,0,1-.27.55c-.09.18-.18.35-.28.52l-.16.24-.08.13a.5.5,0,0,0-.08.12A.05.05,0,1,1,146.75,404Z" style="fill:#263238"></path><path d="M137.54,429.88c1-1.74,1.89-3.59,2.82-5.38l2.8-5.38c1.87-3.58,8.61-15.62,9.28-16.46a.07.07,0,0,1,.12.06c-.31.93-4.5,8.89-5.47,10.67-1.93,3.55-4,7-6,10.55l-1.75,3c-.58,1-1.2,2-1.74,3C137.6,430,137.5,429.94,137.54,429.88Z" style="fill:#263238"></path><path d="M207.77,426c-2.55.25-5.07.63-7.59,1s-5,.81-7.54,1.38a51.54,51.54,0,0,0,7.65-.68A49.41,49.41,0,0,0,207.77,426Z" style="fill:#263238"></path><path d="M177.47,341.43c6.6,13,20.25,32.31,29,35,5.72,1.76,40.73-10.39,45.25-15.61,2-2.28-15.24-17.85-18.43-17.44s-23.6,11.27-25.86,10.4-17.21-13.87-23.28-19.38C173.65,324.88,173,332.64,177.47,341.43Z" style="fill:#ad6359"></path><path d="M246.27,364c2.89-.81,15.42-8.8,18-11.21s9.59-9.92,7.94-12.1-3.87-.15-3.87-.15,2.73-3.94.59-5.67c-1.72-1.39-5,1.3-5,1.3s2.77-4.47.42-5.92c-2.14-1.33-4.94,2.47-4.94,2.47s1.94-4-.37-4.85c-2.78-1.06-6.14,5.82-9.21,8.28-.7.55-15,10.28-15,10.28Z" style="fill:#ad6359"></path><path d="M259.35,332.5c-3,4.9-4.44,6.84-9.17,9.74-.09.06,0,.21.08.16,4.88-2.42,6.71-4.6,9.34-9.79C259.73,332.36,259.49,332.27,259.35,332.5Z" style="fill:#263238"></path><path d="M263.9,336.16c-3,5-5.19,6.85-9.91,10.25a.08.08,0,0,0,.08.13c4.91-3,7.64-4.9,10-10.32C264.2,336,264,335.93,263.9,336.16Z" style="fill:#263238"></path><path d="M268.12,340.71c-3.29,4.66-5.51,6.89-10.52,9.61a.11.11,0,0,0,.09.19,18.88,18.88,0,0,0,10.56-9.68C268.42,340.51,268.33,340.42,268.12,340.71Z" style="fill:#263238"></path><path d="M270.41,333.41a1.76,1.76,0,0,0-.89-1.71,1.57,1.57,0,0,0,.71-1.72c-.33-1.07-1.65-1-1.65-1a1.41,1.41,0,0,0,.3-1.81c-.46-.94-1.87-.45-1.87-.45a1.72,1.72,0,0,0,.18-2.14c-.31-.51-1.28-.45-1.35-.54-2.2-2.87-6.83-8.68-18.27-5.86-8.69,2.15-11.42,10.53-11,17.84,0,.11-.59.17-.59,1a1,1,0,0,0,.5,1,1,1,0,0,0-.23,1.3,1.12,1.12,0,0,0,1.26.62,1.63,1.63,0,0,0-.48,1.82,1.41,1.41,0,0,0,1.54.86,1.39,1.39,0,0,0,0,1.57c.13.23,1.11.29,1.27.39-.54,1.06.75,1.69.75,1.69.71-.4,1.16.6,1.35.78,4.46,4.49,13.83,5.8,19.77,2.49a15.11,15.11,0,0,0,8.07-14.7A1.51,1.51,0,0,0,270.41,333.41Z" style="fill:#FFFFFF"></path><g style="opacity:0.1"><path d="M265.59,329.24c-2.2,4.27-6.84,6.94-11.22,8.5A29.18,29.18,0,0,1,239.81,339c-.37-.07-.52.49-.15.56A29.72,29.72,0,0,0,255,338.13c4.37-1.64,8.91-4.32,11.11-8.6C266.26,329.2,265.76,328.9,265.59,329.24Z"></path><path d="M267.08,334.3a30.08,30.08,0,0,1-25.37,9.8c-.37,0-.37.54,0,.58a30.61,30.61,0,0,0,25.78-10C267.74,334.43,267.33,334,267.08,334.3Z"></path><path d="M266,324.05c-2.71-4.65-8.12-6.19-13.24-6.25a.27.27,0,0,0-.25.15,3.72,3.72,0,0,0-.83-.39c-.35-.12-.5.44-.15.56a3.39,3.39,0,0,1,2.29,3.8s0,0,0,.05a9,9,0,0,0-1.27-.18.2.2,0,0,0,0-.07,4.32,4.32,0,0,0-2.8-3.89.25.25,0,0,0-.34.21l-.07,0h0A.29.29,0,0,0,249,318c-5.77,1-8.84,5.47-10.45,10.68l-.06-.09a.29.29,0,0,0-.51.29l.39.66,0,0a27.83,27.83,0,0,0,5.13,6.2.43.43,0,0,0,.14.13c.43.38.86.75,1.31,1.1-.53,0-1.07,0-1.6,0a.29.29,0,0,0-.13-.23,16.3,16.3,0,0,1-5.68-6.69c-.15-.34-.65-.05-.5.29a16.81,16.81,0,0,0,5.44,6.58,23.43,23.43,0,0,1-4.46-.82.29.29,0,0,0-.15.56c10.57,3,21.33-1.74,27.61-10.46.22-.3-.28-.59-.5-.29l-.08.1a11.28,11.28,0,0,0-11.08-6.91.28.28,0,0,0-.13,0,3.94,3.94,0,0,0-.66-.75c4.92.12,10.05,1.65,12.55,6.24a.36.36,0,0,0,.08.09l-.09.51c-.07.37.49.52.56.15l.18-1A.31.31,0,0,0,266,324.05Zm-27,5.29c1.42-4.92,4-9.22,9.1-10.56-4.18,2.65-8,7.15-8,12.21Q239.47,330.18,239,329.34Zm1.69,2.45c-.4-5.1,3.35-9.67,7.51-12.38a17.92,17.92,0,0,0-6.34,13.81C241.41,332.76,241,332.28,240.65,331.79Zm2.8,3.12c-.37-.35-.72-.71-1.07-1.08a.29.29,0,0,0,0-.14,17.33,17.33,0,0,1,7.69-15l.13.07A20.46,20.46,0,0,0,243.45,334.91Zm3.15,2,0-.82c0-.37-.6-.37-.58,0l0,.87-.34,0a.3.3,0,0,0-.12-.24c-.51-.39-1-.81-1.49-1.24a19.89,19.89,0,0,1,6.63-16.37,3.84,3.84,0,0,1,.59.68.15.15,0,0,0-.07.05A22.41,22.41,0,0,0,246,335c0,.37.59.37.58,0a21.83,21.83,0,0,1,5-14.71,4.12,4.12,0,0,1,.3,1,.23.23,0,0,0-.18.13,25.23,25.23,0,0,0-4,15.35Zm9.85-13.34a9.08,9.08,0,0,1,1.06.68,14.86,14.86,0,0,1-4,5.12.25.25,0,0,0-.18.15,14.76,14.76,0,0,1-4.87,2.52c0-.29.08-.59.13-.88h0A16.88,16.88,0,0,0,256.45,323.54ZM254.91,325a4.43,4.43,0,0,0-.89-2.39,10.17,10.17,0,0,1,1.92.67A17.38,17.38,0,0,1,254.91,325Zm3.57.21a5.89,5.89,0,0,1-.4,5.65,4,4,0,0,1-.88-.69,4,4,0,0,0,.44-4.67.38.38,0,0,0-.09-.09c.15-.27.29-.53.42-.81l.48.45A.32.32,0,0,0,258.48,325.2Zm-1.66,4.51a4.38,4.38,0,0,1-.77-1.88.22.22,0,0,0-.08-.15,17.67,17.67,0,0,0,1.25-1.73A3.4,3.4,0,0,1,256.82,329.71Zm-6.57-.31a.22.22,0,0,0,.05.08,15.35,15.35,0,0,1-1.63.94c.12-.58.26-1.15.41-1.72A1.13,1.13,0,0,1,250.25,329.4Zm-1-1.28a25.12,25.12,0,0,1,.85-2.39,2.91,2.91,0,0,1,2.31,2.09s0,0,0,0a15.06,15.06,0,0,1-1.65,1.31A1.67,1.67,0,0,0,249.25,328.12Zm3.64-.7a3.49,3.49,0,0,0-2.56-2.25c.16-.35.33-.7.5-1h0a3.33,3.33,0,0,1,2.59,2.7Zm-4.65,9.24c0-.79,0-1.57,0-2.36a4.34,4.34,0,0,0,2.29,1.86C249.77,336.36,249,336.53,248.24,336.66Zm3-.73a.27.27,0,0,0-.2-.21,3.81,3.81,0,0,1-2.63-2.23.23.23,0,0,0-.18-.14c0-.26,0-.51.07-.76a.22.22,0,0,0,.16,0,15.6,15.6,0,0,0,2.61-1,4.34,4.34,0,0,0,2.15,3.67C252.62,335.49,252,335.72,251.29,335.93Zm2.65-1a.22.22,0,0,0-.09-.07,3.78,3.78,0,0,1-2.14-3.64,14.89,14.89,0,0,0,1.64-1.07,4.43,4.43,0,0,0,3.22,3.44A26,26,0,0,1,253.94,334.94Zm3.28-1.73a.32.32,0,0,0-.15-.09,3.87,3.87,0,0,1-3.2-3.36c.23-.19.46-.38.68-.59.71,1.59,1.66,3.2,3.47,3.52C257.76,332.87,257.49,333,257.22,333.21Zm1.35-.91a.28.28,0,0,0-.23-.15c-1.83-.15-2.69-1.91-3.35-3.4.19-.18.36-.38.54-.57a4.75,4.75,0,0,0,3.61,3.71Zm1.83-4.1a4.1,4.1,0,0,1-.82,3.19,4.44,4.44,0,0,1-1-.28,6.44,6.44,0,0,0,.81-4.94,12.39,12.39,0,0,1,1.06,1.79A.34.34,0,0,0,260.4,328.2Zm.26,2.46a4.39,4.39,0,0,0,.35-1.47c.12.29.23.57.34.86C261.13,330.26,260.9,330.46,260.66,330.66Zm1.14-1a12.38,12.38,0,0,0-3.86-5.8,10,10,0,0,0-3.62-1.73v0a4.26,4.26,0,0,0,0-1.47,10.77,10.77,0,0,1,8.62,7.6.3.3,0,0,0,.1.14C262.63,328.78,262.23,329.21,261.8,329.62Zm2.7-3.13,0,.05c-.35.46-.71.91-1.09,1.35a11.33,11.33,0,0,0-9.23-7.9h-.06c0-.11-.09-.21-.14-.32A10.71,10.71,0,0,1,264.5,326.49Zm-10.19-.7h0l-.39.5a3.87,3.87,0,0,0-2.82-2.7c.23-.43.47-.86.72-1.28a10.7,10.7,0,0,1,1.27.11A3.89,3.89,0,0,1,254.31,325.79Z"></path><path d="M267,337.58l-.06-.07c.14-.27-.22-.6-.45-.34A26.21,26.21,0,0,1,244,345.81c-.37,0-.37.54,0,.58l.62.06A5.19,5.19,0,0,0,246.3,350c.27.25.69-.16.41-.41a4.59,4.59,0,0,1-1.54-3.08c.51,0,1,.05,1.53.05a9.22,9.22,0,0,0,2.21,4.35c.25.28.66-.13.41-.41a8.64,8.64,0,0,1-2-3.94q.49,0,1,0a8,8,0,0,0,2.47,4.62c.28.25.69-.16.41-.41a7.51,7.51,0,0,1-2.3-4.25l.54,0a11.57,11.57,0,0,0,2.78,4.91c.26.27.67-.14.41-.41a10.91,10.91,0,0,1-2.6-4.56l1.14-.16a.23.23,0,0,0,0,.16,10.59,10.59,0,0,0,4.25,4.89.29.29,0,0,0,.3-.5,10.18,10.18,0,0,1-4-4.63c.35-.07.7-.13,1-.21a.27.27,0,0,0,.08.16,10.35,10.35,0,0,0,7.77,3.33.29.29,0,0,0,0-.58,9.79,9.79,0,0,1-7.26-3c.52-.13,1-.27,1.53-.43a12.22,12.22,0,0,0,6.9,3,.3.3,0,0,0,.55.15,8.15,8.15,0,0,0,1-7.14.27.27,0,0,0-.22-.19l1-.79a6.55,6.55,0,0,1-.31,7.3c-.21.3.29.6.5.29a7.13,7.13,0,0,0,.26-8q.53-.47,1.05-1a7.75,7.75,0,0,1,.69,6,.29.29,0,0,0,.56.15,8.35,8.35,0,0,0-.82-6.57c.2-.2.4-.41.59-.62a9.5,9.5,0,0,1,1,5.08c0,.37.55.37.58,0A10.07,10.07,0,0,0,267,337.58ZM258.51,347a11.61,11.61,0,0,1-3-1.8,26.91,26.91,0,0,0,3.51-1.48,5.66,5.66,0,0,1-.49,3.27Zm.54.2a6.27,6.27,0,0,0,.5-3.7s0,0,0,0c.45-.24.88-.49,1.31-.75a8.72,8.72,0,0,1-.48,4.87C259.92,347.43,259.48,347.3,259.05,347.16Zm2.94.71a.28.28,0,0,0-.21-.12l-.84-.11a9.37,9.37,0,0,0,.46-5.16.23.23,0,0,0-.06-.13c.46-.3.92-.61,1.37-.94a.22.22,0,0,0,0,.08A7.57,7.57,0,0,1,262,347.87Z"></path><path d="M254.61,340.76c-5,2.32-10.49,1.89-15.8,1.41-.37,0-.37.55,0,.58,5.44.49,11,.88,16.09-1.49C255.24,341.11,255,340.61,254.61,340.76Z"></path><path d="M238.7,337.73l-2.2-.25c-.38,0-.37.54,0,.59l2.2.24C239.07,338.35,239.07,337.77,238.7,337.73Z"></path><path d="M268.52,329a19.05,19.05,0,0,1-10.34,10c-.35.13-.2.7.15.56A19.62,19.62,0,0,0,269,329.31C269.18,329,268.68,328.68,268.52,329Z"></path><path d="M266.69,326.32a34.91,34.91,0,0,1-13.17,10.49c-.34.15,0,.65.29.5a35.43,35.43,0,0,0,13.38-10.7C267.41,326.32,266.91,326,266.69,326.32Z"></path><path d="M252.54,337.17a.29.29,0,0,0,0,.58A.29.29,0,0,0,252.54,337.17Z"></path><path d="M253.1,339.46a28,28,0,0,1-15.5.59c-.36-.09-.52.47-.16.56a28.63,28.63,0,0,0,15.81-.59C253.6,339.91,253.45,339.34,253.1,339.46Z"></path><path d="M256,340.2a.29.29,0,0,0,0,.58A.29.29,0,0,0,256,340.2Z"></path><path d="M269.2,335.17a6.28,6.28,0,0,0,.27-.59c.13-.35-.44-.5-.56-.16a4.27,4.27,0,0,1-1.53,2c-.31.21,0,.71.29.5l.18-.14a7.35,7.35,0,0,1,.61,3.79c0,.38.54.37.58,0a7.73,7.73,0,0,0-.74-4.18,4.3,4.3,0,0,0,.52-.61,5.5,5.5,0,0,1,.29,1.44c0,.38.61.38.58,0A6.61,6.61,0,0,0,269.2,335.17Z"></path><path d="M242.9,345.69l-1.49-.22a.27.27,0,0,0-.26.09,2,2,0,0,0-1.22-1.2c-.36-.12-.51.45-.16.57a1.34,1.34,0,0,1,.91,1.12c0,.37.62.38.58,0v0l1.49.22C243.11,346.3,243.27,345.74,242.9,345.69Z"></path></g><path d="M228.47,345s.43-5.2,3.09-8.72c1.92-2.53,9.12-10.55,11.84-10.52,3.07,0,1.29,8.09-2.19,12.56,0,0,5.36,7.6,2.22,12.05S228.47,345,228.47,345Z" style="fill:#ad6359"></path><path d="M241,338.94c2.19,2.88,3.85,7.36,2.58,10.74a.08.08,0,0,0,.15.07c1.85-3.44,0-8.64-2.13-11.1C241.21,338.18,240.45,338.19,241,338.94Z" style="fill:#263238"></path><path d="M185.58,334.27c-10.15-9.13-13.76-4.81-9.42,6.68,2.17,5.73,17,32,28,36.28,8.36,3.31,36.51-7.36,36.51-7.36L227.23,344s-20.32,8.33-21.25,7.77C203.62,350.39,189.71,338,185.58,334.27Z" style="fill:#dbdbdb"></path><path d="M234,370.09C232,366.6,224.07,352,222.58,348.7c-.1-.23,0-.35.15-.12A218.56,218.56,0,0,1,234.14,370C234.19,370.1,234.06,370.18,234,370.09Z" style="fill:#263238"></path><path d="M192.55,389s-12.76,4.37-22.39,3.82c-17.29-1-36.63-7.17-36.69-7.25-.65-1,10.43-38,30.85-55.19,5.93-5,14.48-.54,16.71,3.47C188.49,347.31,193.38,388.31,192.55,389Z" style="fill:#455a64"></path><path d="M192.55,389s-12.76,4.37-22.39,3.82c-17.29-1-36.63-7.17-36.69-7.25-.65-1,10.43-38,30.85-55.19,5.93-5,14.48-.54,16.71,3.47C188.49,347.31,193.38,388.31,192.55,389Z" style="fill:#c7c7c7"></path><path d="M184.75,341.53c.33,1.16.71,2.31,1,3.48s.57,2.21.85,3.33c.14.56.27,1.13.4,1.69-.08-1.21-.2-2.43-.39-3.64,0-.11.15-.13.17,0a26,26,0,0,1,.46,4.66q.51,2.13,1,4.26,1.41,6.9,2.36,13.87c.36,2.64.56,5.3.88,7.94a.06.06,0,1,1-.11,0c-.3-2.32-.76-4.63-1.18-6.94s-.81-4.68-1.25-7c-.88-4.61-1.7-9.23-2.68-13.82-.27-1.28-.55-2.57-.81-3.86s-.49-2.63-.78-3.94C184.64,341.48,184.74,341.47,184.75,341.53Z" style="fill:#263238"></path><path d="M160.85,342.53c-.62,14.59,1.83,38.08,8.11,44.68,4.13,4.33,40.6,10.9,47.1,8.56,2.83-1-4.94-21.6-7.92-22.81s-25.7-3.16-27.24-5-8.21-20.52-10.8-28.3C165.64,326.22,161.27,332.68,160.85,342.53Z" style="fill:#ad6359"></path><path d="M196.46,377s1.37-.94,7.8-7.1c4.45-4.26,18-11.79,33.69-4.51,6,2.78,6.69,8.22-.07,6.44-4.77-1.26-8-2.54-9.63-2.52,0,0,4.51,6.05,3.16,10.21a80.41,80.41,0,0,1-4.29,10.61,16,16,0,0,1-2.05-.63s-4.87,6.36-11,6.76Z" style="fill:#ad6359"></path><path d="M209.15,366.5c3.22-.14,10.06-.35,15.71,1.44,6.28,2,17.83,7.47,16.32,12.09-1.1,3.39-5.7,1.67-5.7,1.67s4.3,3.29,2.63,6.13c-1.52,2.58-5,1.05-5,1.05s2.27,2.43.32,4.64c-2.33,2.66-6.7-2.88-11.39-2.24C221,391.43,209.15,366.5,209.15,366.5Z" style="fill:#ad6359"></path><path d="M221.66,374.22a26.08,26.08,0,0,1,13.79,7.35c.09.1.07.22,0,.15a64.72,64.72,0,0,0-13.77-7.44S221.63,374.21,221.66,374.22Z" style="fill:#263238"></path><path d="M219.85,380.61c2.61.58,9.42,3.56,13.33,8.16.09.11,0,.23-.05.15a68.48,68.48,0,0,0-13.3-8.25S219.82,380.6,219.85,380.61Z" style="fill:#263238"></path><path d="M234.27,392.35a3.63,3.63,0,0,0-1-3.22s-.11,0-.07.06a3.25,3.25,0,0,1,.49,3.3,2.35,2.35,0,0,1-2.81,1.27,17.76,17.76,0,0,1-3.24-1.53,9.78,9.78,0,0,0-3.67-1,15,15,0,0,1-.94,1.2s0,.06,0,0a3.62,3.62,0,0,0,1-1.07,17.65,17.65,0,0,1,4.46,1.83,5.57,5.57,0,0,0,3.34,1.18A2.6,2.6,0,0,0,234.27,392.35Z" style="fill:#263238"></path><path d="M171.43,340.26c-4.37-12.94-9.64-10.94-11.48,1.21-.92,6.06-.8,36.21,6.61,45.33,5.67,7,35.43,11.47,35.43,11.47l1-29.1s-21.8-2.7-22.34-3.65C179.27,363.15,173.21,345.52,171.43,340.26Z" style="fill:#dbdbdb"></path><path d="M196.1,395.21c-.08-4,.21-20.66.52-24.24,0-.25.18-.3.19,0a218.23,218.23,0,0,1-.55,24.28A.08.08,0,0,1,196.1,395.21Z" style="fill:#263238"></path><path d="M173.48,346.89c0-.11.16-.14.19,0,.59,1.86,1.55,4.66,2.59,7.54l-.09-1.26c0-.88-.11-1.76-.16-2.64a.06.06,0,0,1,.12,0c.15.89.27,1.77.36,2.67a20.13,20.13,0,0,1,.12,2.2c1.87,5.14,3.91,10.23,4.47,10.42,1.38.45,22,3.17,22,3.27,0,.39-.09.93-.07,1.32,0,.12-.2.18-.23,0-.07-.32-.15-.65-.23-1-3-.22-20.87-2.69-22.35-3.16C179.58,366.07,174,350.1,173.48,346.89Z" style="fill:#263238"></path><path d="M179.55,339.93c-3.23.9-9-3.86-11.35-7.8-.16-.27.15-3.2.36-6.77.12-2.17.2-4.58.12-6.8l14,2.84a35.47,35.47,0,0,0-1,8.54,5,5,0,0,0,.13.91s0,.09,0,.15C182.16,332.71,182.66,339.07,179.55,339.93Z" style="fill:#ad6359"></path><path d="M168.68,318.57c0,1.15,0,2.36,0,3.56,1.6,4.51,5.23,10.85,13.05,10.73h.3a15.16,15.16,0,0,0-.22-1.85,1.31,1.31,0,0,1,0-.15,4.34,4.34,0,0,1-.13-.91,35.47,35.47,0,0,1,1-8.54Z" style="fill:#263238"></path><path d="M158.55,303.87c.78,7,10,21.41,16.1,23.5,8.87,3,19.56-.9,21.17-10.69,1.56-9.49-10.31-27.55-16.78-29.06C169.49,285.4,157.41,293.52,158.55,303.87Z" style="fill:#ad6359"></path><path d="M179.88,308.15c-1.89,1,.3,4.73,2.05,3.78S181.46,307.29,179.88,308.15Z" style="fill:#263238"></path><path d="M188.38,303.58c1.85-1.09,3.91,2.69,2.19,3.7S186.83,304.5,188.38,303.58Z" style="fill:#263238"></path><path d="M177.39,306.71a12,12,0,0,0,.92-1.09,2.23,2.23,0,0,0,.72-1.29.74.74,0,0,0-.55-.71,1.83,1.83,0,0,0-1.68.77,2.67,2.67,0,0,0-.74,1.79A.78.78,0,0,0,177.39,306.71Z" style="fill:#263238"></path><path d="M188.45,300.32c-.46.17-.91.26-1.38.39a2.29,2.29,0,0,1-1.48.13.74.74,0,0,1-.42-.79,1.84,1.84,0,0,1,1.4-1.22,2.68,2.68,0,0,1,1.93.05A.79.79,0,0,1,188.45,300.32Z" style="fill:#263238"></path><path d="M186.32,318.42a2,2,0,0,0,1.32.33,3.48,3.48,0,0,0,1.22-.83s.09,0,.08,0a1.82,1.82,0,0,1-1.32,1.29,1.44,1.44,0,0,1-1.4-.73C186.17,318.46,186.26,318.39,186.32,318.42Z" style="fill:#263238"></path><path d="M188.77,311.55s1.1,1.65,1.5,2.48c0,.08-.15.22-.42.37l0,0a4.41,4.41,0,0,1-4.57.38.1.1,0,0,1,.07-.18,6.59,6.59,0,0,0,4.12-.71c-.05-.26-2-2.79-1.85-2.84.6-.17,1.7-.4,2.1-.48-.69-1.09-2.8-4.08-4.05-6.06-.08-.13.1-.27.19-.16a61.35,61.35,0,0,1,5.06,6.52C191,311.07,189.17,311.53,188.77,311.55Z" style="fill:#263238"></path><path d="M189.48,314.31a4.8,4.8,0,0,1-1,2.23,2.24,2.24,0,0,1-1.12.7c-.95.23-1.39-.53-1.59-1.26a5.1,5.1,0,0,1-.17-1.21A6.23,6.23,0,0,0,189.48,314.31Z" style="fill:#263238"></path><path d="M188.5,316.54a2.24,2.24,0,0,1-1.12.7c-.95.23-1.39-.53-1.59-1.26A2.23,2.23,0,0,1,188.5,316.54Z" style="fill:#ff9cbd"></path><path d="M163.85,317.39c4.91-1,5.85-7.41,3.46-11.73,0,0,13.28-1.8,11.08-12.26a10.46,10.46,0,0,0,9.59,2.34l2.47,3.4c1.22-.74,1.59-4.85-2.42-6.91,0,0-1.63-5.06-6.25-7.11a7.28,7.28,0,0,0-7.83,1,11,11,0,0,0-8.24.21,9.37,9.37,0,0,0-5.33,6.73s-6,2.95-5.86,7.75a9.67,9.67,0,0,0,3.31,7.19s-1.11,2.21.75,5.84C159.78,316.18,162.37,317.69,163.85,317.39Z" style="fill:#263238"></path><path d="M177.86,292.57a12.26,12.26,0,0,1,.71,2.5,10.54,10.54,0,0,1,.2,2.56,6.69,6.69,0,0,1-2,4.5,11,11,0,0,1-4.4,2.48c-.84.2-1.67.47-2.53.62s-1.72.27-2.58.43c.87,0,1.75-.09,2.63-.13s1.73-.31,2.61-.46a10.89,10.89,0,0,0,4.7-2.5,7,7,0,0,0,2-4.93A10.46,10.46,0,0,0,177.86,292.57Z" style="fill:#263238"></path><path d="M160.38,293.07a12.21,12.21,0,0,0-4.44,2.32,7.32,7.32,0,0,0-2.67,4.31,7.9,7.9,0,0,0,0,2.57,7.3,7.3,0,0,0,.8,2.44,6.81,6.81,0,0,0,3.71,3.3,7.5,7.5,0,0,1-3.29-3.51,8.56,8.56,0,0,1-.67-4.7,6.3,6.3,0,0,1,.83-2.21,9.12,9.12,0,0,1,1.55-1.85A15.82,15.82,0,0,1,160.38,293.07Z" style="fill:#263238"></path><path d="M186.09,296.71a14,14,0,0,1-4.46-1,8.61,8.61,0,0,1-1.93-1.16,10.5,10.5,0,0,1-1.61-1.65,5.71,5.71,0,0,0,1.3,2,6.21,6.21,0,0,0,2,1.37,7.69,7.69,0,0,0,2.34.6A7.25,7.25,0,0,0,186.09,296.71Z" style="fill:#263238"></path><path d="M183.14,315.69l0,0a5.49,5.49,0,1,1,1.41-7.63A5.5,5.5,0,0,1,183.1,315.72Zm-5.8-8.27A4.61,4.61,0,0,0,182.6,315l0,0a4.63,4.63,0,0,0,1.15-6.39l.36-.24-.36.24a4.61,4.61,0,0,0-6.42-1.18Z" style="fill:#FFFFFF"></path><path d="M193.73,310h0a3.72,3.72,0,0,1-3.36.16,6,6,0,0,1-2.88-2.55c-1.47-2.48-1.09-5.44.85-6.62h0a3.72,3.72,0,0,1,3.36-.16,6,6,0,0,1,2.89,2.55C196.06,305.82,195.67,308.78,193.73,310Zm-5-8.25c-1.53.93-1.78,3.35-.56,5.42a5.1,5.1,0,0,0,2.46,2.18,2.87,2.87,0,0,0,2.58-.09h0c1.53-.93,1.78-3.36.55-5.42l.38-.22-.38.22a5.15,5.15,0,0,0-2.45-2.19,2.92,2.92,0,0,0-2.59.1Z" style="fill:#FFFFFF"></path><path d="M187.2,307.15c-1.16-.38-2.49,1.59-2.5,1.61l-.79-.39c.05-.1,1.68-2.67,3.56-2.05Z" style="fill:#FFFFFF"></path><path d="M175.14,312.44c-3.21,1-9.61,3.19-10.79,3.91a5.53,5.53,0,0,0-2,3.28l-.88,0a6.32,6.32,0,0,1,2.43-4c1.57-1,10.6-3.87,11-4Z" style="fill:#FFFFFF"></path><path d="M167.21,316.67s-5.65-3.34-7.31-1.11,4.12,8.15,7.17,7.94a2.92,2.92,0,0,0,2.91-3Z" style="fill:#ad6359"></path><path d="M161.6,317.21a0,0,0,0,0,0,.08c2.16-.09,3.89,1.17,5.37,2.62a1.62,1.62,0,0,0-2.38.59c0,.06,0,.11.1.08a1.79,1.79,0,0,1,2-.25,8.87,8.87,0,0,1,1.52,1.07c.16.12.41-.1.27-.26l0,0C167.5,318.75,164.21,316.31,161.6,317.21Z" style="fill:#263238"></path></g><g id="freepik--speech-bubble--inject-111"><path d="M233.82,269.81a20.47,20.47,0,0,1-34.2,12.95l-10.24,1.5,5.13-8.85a20.26,20.26,0,0,1-1.41-9.86,20.47,20.47,0,0,1,40.72,4.26Z" style="fill:#fff"></path><path d="M233.82,269.81a20.53,20.53,0,0,1-4.13,10.38,23.45,23.45,0,0,1-1.85,2.14,25,25,0,0,1-2.16,1.82,19.94,19.94,0,0,1-4.94,2.75,20.43,20.43,0,0,1-5.51,1.32,20.86,20.86,0,0,1-2.85,0,18,18,0,0,1-2.83-.29,20.72,20.72,0,0,1-10.13-5l.25.07-10.23,1.57-.75.12.38-.66,5.09-8.87,0,.35a20.7,20.7,0,0,1,1.26-18.24,20.94,20.94,0,0,1,6.41-6.83,20.79,20.79,0,0,1,18-2.42,20.88,20.88,0,0,1,7.9,4.84A20.56,20.56,0,0,1,233.82,269.81Zm0,0a20.24,20.24,0,0,0-23.21-22.15,20,20,0,0,0-8.45,3.34,21.05,21.05,0,0,0-6.13,6.68,20.33,20.33,0,0,0-2.6,8.66,20.61,20.61,0,0,0,1.44,8.92l.08.18-.1.17-5.15,8.83-.37-.54,10.25-1.43.14,0,.1.09a20.12,20.12,0,0,0,9.8,5,17.45,17.45,0,0,0,2.78.34,19.35,19.35,0,0,0,8.27-1.21,18.73,18.73,0,0,0,4.94-2.66,23.15,23.15,0,0,0,2.16-1.8,22,22,0,0,0,1.86-2.12A20.52,20.52,0,0,0,233.82,269.81Z" style="fill:#263238"></path><path d="M222.14,271.54a26.7,26.7,0,0,1-8.6,7.46,26.73,26.73,0,0,1-8.59-7.46c-3-4-2.88-10.27,1.45-11.63,4.79-1.5,7.14,5.71,7.14,5.71s2.39-7.26,7.15-5.71C225,261.31,225.17,267.54,222.14,271.54Z" style="fill:#FFFFFF"></path></g></svg>